STARTFONT 2.1
FONT -TakWolf-Fusion Pixel 8px Mono zh_hans-Regular-R-Normal-Sans Serif-8-80-75-75-M-79-ISO10646-1
SIZE 8 75 75
FONTBOUNDINGBOX 8 8 0 -1
STARTPROPERTIES 24
FOUNDRY "TakWolf"
FAMILY_NAME "Fusion Pixel 8px Mono zh_hans"
WEIGHT_NAME "Regular"
SLANT "R"
SETWIDTH_NAME "Normal"
ADD_STYLE_NAME "Sans Serif"
PIXEL_SIZE 8
POINT_SIZE 80
RESOLUTION_X 75
RESOLUTION_Y 75
SPACING "M"
AVERAGE_WIDTH 79
CHARSET_REGISTRY "ISO10646"
CHARSET_ENCODING "1"
DEFAULT_CHAR -1
FONT_ASCENT 7
FONT_DESCENT 1
X_HEIGHT 4
CAP_HEIGHT 6
UNDERLINE_POSITION -1
UNDERLINE_THICKNESS 1
FONT_VERSION "2026.07.01"
COPYRIGHT "Copyright (c) 2022, TakWolf (https://takwolf.com)"
LICENSE "This Font Software is licensed under the SIL Open Font License, Version 1.1"
ENDPROPERTIES
CHARS 625
STARTCHAR u25A1
ENCODING 9633
SWIDTH 1000 0
DWIDTH 8 0
BBX 8 8 0 -1
BITMAP
00
FE
82
82
82
82
82
FE
ENDCHAR
STARTCHAR u3001
ENCODING 12289
SWIDTH 1000 0
DWIDTH 8 0
BBX 8 8 0 -1
BITMAP
00
00
00
00
00
40
20
20
ENDCHAR
STARTCHAR u4E00
ENCODING 19968
SWIDTH 1000 0
DWIDTH 8 0
BBX 8 8 0 -1
BITMAP
00
00
00
00
FE
00
00
00
ENDCHAR
STARTCHAR u4E0A-ZH_CN
ENCODING 19978
SWIDTH 1000 0
DWIDTH 8 0
BBX 8 8 0 -1
BITMAP
00
10
10
1C
10
10
10
FE
ENDCHAR
STARTCHAR u4E0B-ZH_CN
ENCODING 19979
SWIDTH 1000 0
DWIDTH 8 0
BBX 8 8 0 -1
BITMAP
00
FE
10
18
14
10
10
10
ENDCHAR
STARTCHAR u4E0D-ZH_CN
ENCODING 19981
SWIDTH 1000 0
DWIDTH 8 0
BBX 8 8 0 -1
BITMAP
00
FE
10
10
34
D2
10
10
ENDCHAR
STARTCHAR u4E0E-ZH_CN
ENCODING 19982
SWIDTH 1000 0
DWIDTH 8 0
BBX 8 8 0 -1
BITMAP
00
40
7E
40
7C
04
F4
0C
ENDCHAR
STARTCHAR u4E2A-ZH_CN
ENCODING 20010
SWIDTH 1000 0
DWIDTH 8 0
BBX 8 8 0 -1
BITMAP
00
10
28
D6
10
10
10
10
ENDCHAR
STARTCHAR u4E2D-ZH_CN
ENCODING 20013
SWIDTH 1000 0
DWIDTH 8 0
BBX 8 8 0 -1
BITMAP
00
10
FE
92
92
FE
10
10
ENDCHAR
STARTCHAR u4E32-ZH_CN
ENCODING 20018
SWIDTH 1000 0
DWIDTH 8 0
BBX 8 8 0 -1
BITMAP
00
10
7C
7C
10
FE
FE
10
ENDCHAR
STARTCHAR u4E39-ZH_CN
ENCODING 20025
SWIDTH 1000 0
DWIDTH 8 0
BBX 8 8 0 -1
BITMAP
00
7C
44
54
44
FE
44
8C
ENDCHAR
STARTCHAR u4E3A-ZH_CN
ENCODING 20026
SWIDTH 1000 0
DWIDTH 8 0
BBX 8 8 0 -1
BITMAP
00
50
10
7E
22
2A
42
86
ENDCHAR
STARTCHAR u4E3B-ZH_CN
ENCODING 20027
SWIDTH 1000 0
DWIDTH 8 0
BBX 8 8 0 -1
BITMAP
00
20
10
FE
10
7C
10
FE
ENDCHAR
STARTCHAR u4E49-ZH_CN
ENCODING 20041
SWIDTH 1000 0
DWIDTH 8 0
BBX 8 8 0 -1
BITMAP
00
20
14
44
28
10
28
C6
ENDCHAR
STARTCHAR u4E4B-ZH_CN
ENCODING 20043
SWIDTH 1000 0
DWIDTH 8 0
BBX 8 8 0 -1
BITMAP
00
10
7C
04
08
10
60
9E
ENDCHAR
STARTCHAR u4E4C-ZH_CN
ENCODING 20044
SWIDTH 1000 0
DWIDTH 8 0
BBX 8 8 0 -1
BITMAP
00
10
7C
44
44
7E
02
FA
ENDCHAR
STARTCHAR u4E50-ZH_CN
ENCODING 20048
SWIDTH 1000 0
DWIDTH 8 0
BBX 8 8 0 -1
BITMAP
00
0C
70
50
7C
10
54
B2
ENDCHAR
STARTCHAR u4E58-ZH_CN
ENCODING 20056
SWIDTH 1000 0
DWIDTH 8 0
BBX 8 8 0 -1
BITMAP
00
0C
70
FE
54
D6
38
D6
ENDCHAR
STARTCHAR u4E8C
ENCODING 20108
SWIDTH 1000 0
DWIDTH 8 0
BBX 8 8 0 -1
BITMAP
00
00
7C
00
00
00
FE
00
ENDCHAR
STARTCHAR u4E8E-ZH_CN
ENCODING 20110
SWIDTH 1000 0
DWIDTH 8 0
BBX 8 8 0 -1
BITMAP
00
7C
10
10
FE
10
10
30
ENDCHAR
STARTCHAR u4EA4-ZH_CN
ENCODING 20132
SWIDTH 1000 0
DWIDTH 8 0
BBX 8 8 0 -1
BITMAP
00
10
FE
28
C6
28
10
EE
ENDCHAR
STARTCHAR u4EAB-ZH_CN
ENCODING 20139
SWIDTH 1000 0
DWIDTH 8 0
BBX 8 8 0 -1
BITMAP
00
10
FE
44
7C
08
FE
10
ENDCHAR
STARTCHAR u4EAE-ZH_CN
ENCODING 20142
SWIDTH 1000 0
DWIDTH 8 0
BBX 8 8 0 -1
BITMAP
00
10
FE
44
FE
82
38
CE
ENDCHAR
STARTCHAR u4EC5-ZH_CN
ENCODING 20165
SWIDTH 1000 0
DWIDTH 8 0
BBX 8 8 0 -1
BITMAP
00
2E
42
CA
4A
44
44
5A
ENDCHAR
STARTCHAR u4ECB-ZH_CN
ENCODING 20171
SWIDTH 1000 0
DWIDTH 8 0
BBX 8 8 0 -1
BITMAP
00
10
28
C6
28
28
28
48
ENDCHAR
STARTCHAR u4ECE-ZH_CN
ENCODING 20174
SWIDTH 1000 0
DWIDTH 8 0
BBX 8 8 0 -1
BITMAP
00
24
24
24
24
54
4A
92
ENDCHAR
STARTCHAR u4ED6-ZH_CN
ENCODING 20182
SWIDTH 1000 0
DWIDTH 8 0
BBX 8 8 0 -1
BITMAP
00
24
54
DE
76
54
52
5E
ENDCHAR
STARTCHAR u4EE5-ZH_CN
ENCODING 20197
SWIDTH 1000 0
DWIDTH 8 0
BBX 8 8 0 -1
BITMAP
00
84
A4
94
84
C4
8C
32
ENDCHAR
STARTCHAR u4EEA-ZH_CN
ENCODING 20202
SWIDTH 1000 0
DWIDTH 8 0
BBX 8 8 0 -1
BITMAP
00
28
4A
C2
54
54
48
56
ENDCHAR
STARTCHAR u4EF0-ZH_CN
ENCODING 20208
SWIDTH 1000 0
DWIDTH 8 0
BBX 8 8 0 -1
BITMAP
00
50
6E
EA
EA
7A
68
48
ENDCHAR
STARTCHAR u4EF6-ZH_CN
ENCODING 20214
SWIDTH 1000 0
DWIDTH 8 0
BBX 8 8 0 -1
BITMAP
00
2C
4E
D4
44
5E
44
44
ENDCHAR
STARTCHAR u4EFB-ZH_CN
ENCODING 20219
SWIDTH 1000 0
DWIDTH 8 0
BBX 8 8 0 -1
BITMAP
00
24
58
C8
7E
48
48
5C
ENDCHAR
STARTCHAR u4EFD-ZH_CN
ENCODING 20221
SWIDTH 1000 0
DWIDTH 8 0
BBX 8 8 0 -1
BITMAP
00
34
54
E2
5C
54
54
6C
ENDCHAR
STARTCHAR u4F10-ZH_CN
ENCODING 20240
SWIDTH 1000 0
DWIDTH 8 0
BBX 8 8 0 -1
BITMAP
00
2A
48
DE
48
4A
44
5A
ENDCHAR
STARTCHAR u4F20-ZH_CN
ENCODING 20256
SWIDTH 1000 0
DWIDTH 8 0
BBX 8 8 0 -1
BITMAP
00
28
5C
C8
7E
50
5E
42
ENDCHAR
STARTCHAR u4F2F-ZH_CN
ENCODING 20271
SWIDTH 1000 0
DWIDTH 8 0
BBX 8 8 0 -1
BITMAP
00
28
5E
D2
5E
52
52
5E
ENDCHAR
STARTCHAR u4F4D-ZH_CN
ENCODING 20301
SWIDTH 1000 0
DWIDTH 8 0
BBX 8 8 0 -1
BITMAP
00
28
7E
C4
54
54
48
7E
ENDCHAR
STARTCHAR u4F4E-ZH_CN
ENCODING 20302
SWIDTH 1000 0
DWIDTH 8 0
BBX 8 8 0 -1
BITMAP
00
22
5C
D4
5E
54
5C
5A
ENDCHAR
STARTCHAR u4F4F-ZH_CN
ENCODING 20303
SWIDTH 1000 0
DWIDTH 8 0
BBX 8 8 0 -1
BITMAP
00
28
44
DE
44
4E
44
5E
ENDCHAR
STARTCHAR u4F53-ZH_CN
ENCODING 20307
SWIDTH 1000 0
DWIDTH 8 0
BBX 8 8 0 -1
BITMAP
00
28
7E
C8
5C
6A
5C
48
ENDCHAR
STARTCHAR u4F55-ZH_CN
ENCODING 20309
SWIDTH 1000 0
DWIDTH 8 0
BBX 8 8 0 -1
BITMAP
00
3E
42
DE
56
5E
42
46
ENDCHAR
STARTCHAR u4F5C-ZH_CN
ENCODING 20316
SWIDTH 1000 0
DWIDTH 8 0
BBX 8 8 0 -1
BITMAP
00
28
4E
D8
4E
48
4E
48
ENDCHAR
STARTCHAR u4F7F-ZH_CN
ENCODING 20351
SWIDTH 1000 0
DWIDTH 8 0
BBX 8 8 0 -1
BITMAP
00
28
7E
DA
5E
78
48
76
ENDCHAR
STARTCHAR u4F8B-ZH_CN
ENCODING 20363
SWIDTH 1000 0
DWIDTH 8 0
BBX 8 8 0 -1
BITMAP
00
3A
56
DE
6E
5A
52
66
ENDCHAR
STARTCHAR u4F9B-ZH_CN
ENCODING 20379
SWIDTH 1000 0
DWIDTH 8 0
BBX 8 8 0 -1
BITMAP
00
54
7E
D4
D4
7E
40
62
ENDCHAR
STARTCHAR u4FA7-ZH_CN
ENCODING 20391
SWIDTH 1000 0
DWIDTH 8 0
BBX 8 8 0 -1
BITMAP
00
3A
6E
FE
7E
7A
52
6A
ENDCHAR
STARTCHAR u4FC4-ZH_CN
ENCODING 20420
SWIDTH 1000 0
DWIDTH 8 0
BBX 8 8 0 -1
BITMAP
00
4E
74
FE
D4
56
7C
52
ENDCHAR
STARTCHAR u4FDD-ZH_CN
ENCODING 20445
SWIDTH 1000 0
DWIDTH 8 0
BBX 8 8 0 -1
BITMAP
00
3C
54
DC
48
7E
5C
6A
ENDCHAR
STARTCHAR u4FE1-ZH_CN
ENCODING 20449
SWIDTH 1000 0
DWIDTH 8 0
BBX 8 8 0 -1
BITMAP
00
28
5E
C0
4C
40
5E
5E
ENDCHAR
STARTCHAR u4FEE-ZH_CN
ENCODING 20462
SWIDTH 1000 0
DWIDTH 8 0
BBX 8 8 0 -1
BITMAP
00
2C
74
E8
76
68
64
58
ENDCHAR
STARTCHAR u4FEF-ZH_CN
ENCODING 20463
SWIDTH 1000 0
DWIDTH 8 0
BBX 8 8 0 -1
BITMAP
00
28
7E
E0
6A
76
72
56
ENDCHAR
STARTCHAR u500D-ZH_CN
ENCODING 20493
SWIDTH 1000 0
DWIDTH 8 0
BBX 8 8 0 -1
BITMAP
00
28
7E
D4
7E
5C
54
5C
ENDCHAR
STARTCHAR u5012-ZH_CN
ENCODING 20498
SWIDTH 1000 0
DWIDTH 8 0
BBX 8 8 0 -1
BITMAP
00
3A
56
E6
7E
52
7A
46
ENDCHAR
STARTCHAR u503C-ZH_CN
ENCODING 20540
SWIDTH 1000 0
DWIDTH 8 0
BBX 8 8 0 -1
BITMAP
00
28
7E
C8
5C
54
5C
7E
ENDCHAR
STARTCHAR u504F-ZH_CN
ENCODING 20559
SWIDTH 1000 0
DWIDTH 8 0
BBX 8 8 0 -1
BITMAP
00
28
5C
DC
50
5E
6E
4A
ENDCHAR
STARTCHAR u505C-ZH_CN
ENCODING 20572
SWIDTH 1000 0
DWIDTH 8 0
BBX 8 8 0 -1
BITMAP
00
28
7E
D4
7E
5E
48
58
ENDCHAR
STARTCHAR u507F-ZH_CN
ENCODING 20607
SWIDTH 1000 0
DWIDTH 8 0
BBX 8 8 0 -1
BITMAP
00
2A
7E
EE
40
7E
54
7A
ENDCHAR
STARTCHAR u50A8-ZH_CN
ENCODING 20648
SWIDTH 1000 0
DWIDTH 8 0
BBX 8 8 0 -1
BITMAP
00
54
4E
F4
DE
58
56
56
ENDCHAR
STARTCHAR u50CF
ENCODING 20687
SWIDTH 1000 0
DWIDTH 8 0
BBX 8 8 0 -1
BITMAP
00
5C
BE
AA
BC
9A
AC
9A
ENDCHAR
STARTCHAR u5141-ZH_CN
ENCODING 20801
SWIDTH 1000 0
DWIDTH 8 0
BBX 8 8 0 -1
BITMAP
00
10
24
FA
28
28
4A
8E
ENDCHAR
STARTCHAR u5145-ZH_CN
ENCODING 20805
SWIDTH 1000 0
DWIDTH 8 0
BBX 8 8 0 -1
BITMAP
00
10
FE
28
74
28
2A
CE
ENDCHAR
STARTCHAR u5149-ZH_CN
ENCODING 20809
SWIDTH 1000 0
DWIDTH 8 0
BBX 8 8 0 -1
BITMAP
00
10
54
10
FE
28
2A
CE
ENDCHAR
STARTCHAR u514B-ZH_CN
ENCODING 20811
SWIDTH 1000 0
DWIDTH 8 0
BBX 8 8 0 -1
BITMAP
00
10
FE
7C
44
7C
2A
CE
ENDCHAR
STARTCHAR u5165-ZH_CN
ENCODING 20837
SWIDTH 1000 0
DWIDTH 8 0
BBX 8 8 0 -1
BITMAP
00
20
10
10
28
28
44
82
ENDCHAR
STARTCHAR u5168-ZH_CN
ENCODING 20840
SWIDTH 1000 0
DWIDTH 8 0
BBX 8 8 0 -1
BITMAP
00
10
28
FE
10
7C
10
FE
ENDCHAR
STARTCHAR u516C-ZH_CN
ENCODING 20844
SWIDTH 1000 0
DWIDTH 8 0
BBX 8 8 0 -1
BITMAP
00
28
28
44
92
10
24
FA
ENDCHAR
STARTCHAR u5170-ZH_CN
ENCODING 20848
SWIDTH 1000 0
DWIDTH 8 0
BBX 8 8 0 -1
BITMAP
00
24
08
7C
00
38
00
FE
ENDCHAR
STARTCHAR u5173-ZH_CN
ENCODING 20851
SWIDTH 1000 0
DWIDTH 8 0
BBX 8 8 0 -1
BITMAP
00
28
7C
10
FE
10
28
C6
ENDCHAR
STARTCHAR u5176-ZH_CN
ENCODING 20854
SWIDTH 1000 0
DWIDTH 8 0
BBX 8 8 0 -1
BITMAP
00
28
FE
28
38
FE
00
C6
ENDCHAR
STARTCHAR u5177-ZH_CN
ENCODING 20855
SWIDTH 1000 0
DWIDTH 8 0
BBX 8 8 0 -1
BITMAP
00
7C
44
7C
44
FE
00
C6
ENDCHAR
STARTCHAR u5178-ZH_CN
ENCODING 20856
SWIDTH 1000 0
DWIDTH 8 0
BBX 8 8 0 -1
BITMAP
00
28
7C
6C
7C
FE
00
C6
ENDCHAR
STARTCHAR u517C-ZH_CN
ENCODING 20860
SWIDTH 1000 0
DWIDTH 8 0
BBX 8 8 0 -1
BITMAP
00
44
FE
78
2E
F8
6C
AA
ENDCHAR
STARTCHAR u5185-ZH_CN
ENCODING 20869
SWIDTH 1000 0
DWIDTH 8 0
BBX 8 8 0 -1
BITMAP
00
10
FE
92
AA
C6
82
86
ENDCHAR
STARTCHAR u518C-ZH_CN
ENCODING 20876
SWIDTH 1000 0
DWIDTH 8 0
BBX 8 8 0 -1
BITMAP
00
7E
5A
5A
FE
5A
5A
B6
ENDCHAR
STARTCHAR u5199-ZH_CN
ENCODING 20889
SWIDTH 1000 0
DWIDTH 8 0
BBX 8 8 0 -1
BITMAP
00
FE
A2
3E
20
FC
04
1C
ENDCHAR
STARTCHAR u51B2-ZH_CN
ENCODING 20914
SWIDTH 1000 0
DWIDTH 8 0
BBX 8 8 0 -1
BITMAP
00
88
3E
2A
2A
BE
88
88
ENDCHAR
STARTCHAR u51C6-ZH_CN
ENCODING 20934
SWIDTH 1000 0
DWIDTH 8 0
BBX 8 8 0 -1
BITMAP
00
94
1E
34
1E
94
94
9E
ENDCHAR
STARTCHAR u51CF-ZH_CN
ENCODING 20943
SWIDTH 1000 0
DWIDTH 8 0
BBX 8 8 0 -1
BITMAP
00
84
3E
24
3C
A6
BC
DA
ENDCHAR
STARTCHAR u51E0-ZH_CN
ENCODING 20960
SWIDTH 1000 0
DWIDTH 8 0
BBX 8 8 0 -1
BITMAP
00
78
48
48
48
48
4A
8E
ENDCHAR
STARTCHAR u51FA-ZH_CN
ENCODING 20986
SWIDTH 1000 0
DWIDTH 8 0
BBX 8 8 0 -1
BITMAP
00
10
54
54
7C
92
92
FE
ENDCHAR
STARTCHAR u51FB-ZH_CN
ENCODING 20987
SWIDTH 1000 0
DWIDTH 8 0
BBX 8 8 0 -1
BITMAP
00
10
7C
10
FE
10
54
7C
ENDCHAR
STARTCHAR u51FD-ZH_CN
ENCODING 20989
SWIDTH 1000 0
DWIDTH 8 0
BBX 8 8 0 -1
BITMAP
00
7C
08
9A
D6
BA
D6
FE
ENDCHAR
STARTCHAR u5206-ZH_CN
ENCODING 20998
SWIDTH 1000 0
DWIDTH 8 0
BBX 8 8 0 -1
BITMAP
00
28
28
44
BE
14
24
CC
ENDCHAR
STARTCHAR u5207-ZH_CN
ENCODING 20999
SWIDTH 1000 0
DWIDTH 8 0
BBX 8 8 0 -1
BITMAP
00
5E
4A
EA
4A
4A
6A
16
ENDCHAR
STARTCHAR u5217-ZH_CN
ENCODING 21015
SWIDTH 1000 0
DWIDTH 8 0
BBX 8 8 0 -1
BITMAP
00
F2
4A
6A
AA
62
42
86
ENDCHAR
STARTCHAR u521B-ZH_CN
ENCODING 21019
SWIDTH 1000 0
DWIDTH 8 0
BBX 8 8 0 -1
BITMAP
00
22
5A
8A
7A
52
42
76
ENDCHAR
STARTCHAR u521D-ZH_CN
ENCODING 21021
SWIDTH 1000 0
DWIDTH 8 0
BBX 8 8 0 -1
BITMAP
00
5E
EA
2A
4A
EA
6A
56
ENDCHAR
STARTCHAR u5220-ZH_CN
ENCODING 21024
SWIDTH 1000 0
DWIDTH 8 0
BBX 8 8 0 -1
BITMAP
00
7A
6E
6E
FE
6A
6A
AA
ENDCHAR
STARTCHAR u5229-ZH_CN
ENCODING 21033
SWIDTH 1000 0
DWIDTH 8 0
BBX 8 8 0 -1
BITMAP
00
72
2A
FA
2A
72
A2
26
ENDCHAR
STARTCHAR u522B-ZH_CN
ENCODING 21035
SWIDTH 1000 0
DWIDTH 8 0
BBX 8 8 0 -1
BITMAP
00
F2
9A
FA
4A
F2
52
B6
ENDCHAR
STARTCHAR u5230-ZH_CN
ENCODING 21040
SWIDTH 1000 0
DWIDTH 8 0
BBX 8 8 0 -1
BITMAP
00
F2
2A
5A
FA
62
32
C6
ENDCHAR
STARTCHAR u5236-ZH_CN
ENCODING 21046
SWIDTH 1000 0
DWIDTH 8 0
BBX 8 8 0 -1
BITMAP
00
62
7A
AA
7A
22
FA
AA
ENDCHAR
STARTCHAR u5237-ZH_CN
ENCODING 21047
SWIDTH 1000 0
DWIDTH 8 0
BBX 8 8 0 -1
BITMAP
00
7A
4A
7A
52
7A
5A
96
ENDCHAR
STARTCHAR u5239-ZH_CN
ENCODING 21049
SWIDTH 1000 0
DWIDTH 8 0
BBX 8 8 0 -1
BITMAP
00
52
2A
DA
2A
FA
72
AA
ENDCHAR
STARTCHAR u524D-ZH_CN
ENCODING 21069
SWIDTH 1000 0
DWIDTH 8 0
BBX 8 8 0 -1
BITMAP
00
44
FE
00
EA
AA
E2
A6
ENDCHAR
STARTCHAR u526F-ZH_CN
ENCODING 21103
SWIDTH 1000 0
DWIDTH 8 0
BBX 8 8 0 -1
BITMAP
00
FA
56
76
06
FA
AA
FA
ENDCHAR
STARTCHAR u529F-ZH_CN
ENCODING 21151
SWIDTH 1000 0
DWIDTH 8 0
BBX 8 8 0 -1
BITMAP
00
08
FE
4A
4A
6A
CA
16
ENDCHAR
STARTCHAR u52A0-ZH_CN
ENCODING 21152
SWIDTH 1000 0
DWIDTH 8 0
BBX 8 8 0 -1
BITMAP
00
40
FE
5A
5A
5A
5A
BE
ENDCHAR
STARTCHAR u52A8-ZH_CN
ENCODING 21160
SWIDTH 1000 0
DWIDTH 8 0
BBX 8 8 0 -1
BITMAP
00
E8
1E
EA
4A
AA
EA
16
ENDCHAR
STARTCHAR u5305-ZH_CN
ENCODING 21253
SWIDTH 1000 0
DWIDTH 8 0
BBX 8 8 0 -1
BITMAP
00
40
7E
BA
2A
3A
20
3E
ENDCHAR
STARTCHAR u5308-ZH_CN
ENCODING 21256
SWIDTH 1000 0
DWIDTH 8 0
BBX 8 8 0 -1
BITMAP
00
40
7E
AA
52
6A
7A
06
ENDCHAR
STARTCHAR u5316-ZH_CN
ENCODING 21270
SWIDTH 1000 0
DWIDTH 8 0
BBX 8 8 0 -1
BITMAP
00
30
50
D2
7C
50
52
5E
ENDCHAR
STARTCHAR u5339-ZH_CN
ENCODING 21305
SWIDTH 1000 0
DWIDTH 8 0
BBX 8 8 0 -1
BITMAP
00
FE
A8
A8
AA
CE
80
FE
ENDCHAR
STARTCHAR u533A-ZH_CN
ENCODING 21306
SWIDTH 1000 0
DWIDTH 8 0
BBX 8 8 0 -1
BITMAP
00
FE
84
B4
88
94
A0
FE
ENDCHAR
STARTCHAR u5347-ZH_CN
ENCODING 21319
SWIDTH 1000 0
DWIDTH 8 0
BBX 8 8 0 -1
BITMAP
00
14
E4
24
FE
24
24
44
ENDCHAR
STARTCHAR u534A-ZH_CN
ENCODING 21322
SWIDTH 1000 0
DWIDTH 8 0
BBX 8 8 0 -1
BITMAP
00
10
54
10
7C
10
FE
10
ENDCHAR
STARTCHAR u534F-ZH_CN
ENCODING 21327
SWIDTH 1000 0
DWIDTH 8 0
BBX 8 8 0 -1
BITMAP
00
48
5C
EC
4E
6E
54
54
ENDCHAR
STARTCHAR u5355-ZH_CN
ENCODING 21333
SWIDTH 1000 0
DWIDTH 8 0
BBX 8 8 0 -1
BITMAP
00
28
7C
54
7C
54
FE
10
ENDCHAR
STARTCHAR u5361-ZH_CN
ENCODING 21345
SWIDTH 1000 0
DWIDTH 8 0
BBX 8 8 0 -1
BITMAP
00
10
1C
10
FE
18
14
10
ENDCHAR
STARTCHAR u536B-ZH_CN
ENCODING 21355
SWIDTH 1000 0
DWIDTH 8 0
BBX 8 8 0 -1
BITMAP
00
7E
12
12
16
10
10
FE
ENDCHAR
STARTCHAR u538B-ZH_CN
ENCODING 21387
SWIDTH 1000 0
DWIDTH 8 0
BBX 8 8 0 -1
BITMAP
00
7E
48
48
5C
48
4A
BE
ENDCHAR
STARTCHAR u539F-ZH_CN
ENCODING 21407
SWIDTH 1000 0
DWIDTH 8 0
BBX 8 8 0 -1
BITMAP
00
7E
48
5C
5C
48
6A
98
ENDCHAR
STARTCHAR u53C2-ZH_CN
ENCODING 21442
SWIDTH 1000 0
DWIDTH 8 0
BBX 8 8 0 -1
BITMAP
00
28
74
FE
54
A2
08
70
ENDCHAR
STARTCHAR u53C9-ZH_CN
ENCODING 21449
SWIDTH 1000 0
DWIDTH 8 0
BBX 8 8 0 -1
BITMAP
00
7C
14
44
28
10
28
C6
ENDCHAR
STARTCHAR u53CA-ZH_CN
ENCODING 21450
SWIDTH 1000 0
DWIDTH 8 0
BBX 8 8 0 -1
BITMAP
00
F8
28
2C
24
54
48
B6
ENDCHAR
STARTCHAR u53CC-ZH_CN
ENCODING 21452
SWIDTH 1000 0
DWIDTH 8 0
BBX 8 8 0 -1
BITMAP
00
FE
12
5A
2A
24
54
8A
ENDCHAR
STARTCHAR u53CD-ZH_CN
ENCODING 21453
SWIDTH 1000 0
DWIDTH 8 0
BBX 8 8 0 -1
BITMAP
00
0E
70
7C
54
54
48
B6
ENDCHAR
STARTCHAR u53D1-ZH_CN
ENCODING 21457
SWIDTH 1000 0
DWIDTH 8 0
BBX 8 8 0 -1
BITMAP
00
A4
FE
20
3C
54
48
B6
ENDCHAR
STARTCHAR u53D6-ZH_CN
ENCODING 21462
SWIDTH 1000 0
DWIDTH 8 0
BBX 8 8 0 -1
BITMAP
00
F0
5E
72
7A
54
FA
10
ENDCHAR
STARTCHAR u53D8-ZH_CN
ENCODING 21464
SWIDTH 1000 0
DWIDTH 8 0
BBX 8 8 0 -1
BITMAP
00
10
FE
28
BA
28
10
EE
ENDCHAR
STARTCHAR u53E0-ZH_CN
ENCODING 21472
SWIDTH 1000 0
DWIDTH 8 0
BBX 8 8 0 -1
BITMAP
00
38
08
E6
FE
BA
28
FE
ENDCHAR
STARTCHAR u53E3-ZH_CN
ENCODING 21475
SWIDTH 1000 0
DWIDTH 8 0
BBX 8 8 0 -1
BITMAP
00
00
7E
42
42
42
7E
42
ENDCHAR
STARTCHAR u53E6-ZH_CN
ENCODING 21478
SWIDTH 1000 0
DWIDTH 8 0
BBX 8 8 0 -1
BITMAP
00
7C
44
7C
10
FE
12
E6
ENDCHAR
STARTCHAR u53EA-ZH_CN
ENCODING 21482
SWIDTH 1000 0
DWIDTH 8 0
BBX 8 8 0 -1
BITMAP
00
7C
44
44
7C
00
28
C6
ENDCHAR
STARTCHAR u53EF-ZH_CN
ENCODING 21487
SWIDTH 1000 0
DWIDTH 8 0
BBX 8 8 0 -1
BITMAP
00
FE
04
74
54
74
04
0C
ENDCHAR
STARTCHAR u53F0-ZH_CN
ENCODING 21488
SWIDTH 1000 0
DWIDTH 8 0
BBX 8 8 0 -1
BITMAP
00
10
10
24
FA
00
7C
7C
ENDCHAR
STARTCHAR u53F3-ZH_CN
ENCODING 21491
SWIDTH 1000 0
DWIDTH 8 0
BBX 8 8 0 -1
BITMAP
00
20
FE
20
7C
A4
24
3C
ENDCHAR
STARTCHAR u53F7-ZH_CN
ENCODING 21495
SWIDTH 1000 0
DWIDTH 8 0
BBX 8 8 0 -1
BITMAP
00
38
28
FE
20
3C
04
1C
ENDCHAR
STARTCHAR u5408-ZH_CN
ENCODING 21512
SWIDTH 1000 0
DWIDTH 8 0
BBX 8 8 0 -1
BITMAP
00
10
28
DE
00
7C
44
7C
ENDCHAR
STARTCHAR u540C-ZH_CN
ENCODING 21516
SWIDTH 1000 0
DWIDTH 8 0
BBX 8 8 0 -1
BITMAP
00
FE
82
BA
82
BA
AA
BA
ENDCHAR
STARTCHAR u540D-ZH_CN
ENCODING 21517
SWIDTH 1000 0
DWIDTH 8 0
BBX 8 8 0 -1
BITMAP
00
3C
24
58
10
3E
D2
1E
ENDCHAR
STARTCHAR u540E-ZH_CN
ENCODING 21518
SWIDTH 1000 0
DWIDTH 8 0
BBX 8 8 0 -1
BITMAP
00
0C
70
40
7E
40
5C
9C
ENDCHAR
STARTCHAR u5411-ZH_CN
ENCODING 21521
SWIDTH 1000 0
DWIDTH 8 0
BBX 8 8 0 -1
BITMAP
00
10
FE
82
BA
AA
BA
86
ENDCHAR
STARTCHAR u5417-ZH_CN
ENCODING 21527
SWIDTH 1000 0
DWIDTH 8 0
BBX 8 8 0 -1
BITMAP
00
1C
E4
B4
BE
E2
1A
06
ENDCHAR
STARTCHAR u5426-ZH_CN
ENCODING 21542
SWIDTH 1000 0
DWIDTH 8 0
BBX 8 8 0 -1
BITMAP
00
FE
10
34
D2
7C
44
7C
ENDCHAR
STARTCHAR u542B-ZH_CN
ENCODING 21547
SWIDTH 1000 0
DWIDTH 8 0
BBX 8 8 0 -1
BITMAP
00
10
28
FE
08
7C
44
7C
ENDCHAR
STARTCHAR u542F-ZH_CN
ENCODING 21551
SWIDTH 1000 0
DWIDTH 8 0
BBX 8 8 0 -1
BITMAP
00
10
7C
44
7C
5E
52
9E
ENDCHAR
STARTCHAR u544A-ZH_CN
ENCODING 21578
SWIDTH 1000 0
DWIDTH 8 0
BBX 8 8 0 -1
BITMAP
00
50
7C
90
FE
00
7C
7C
ENDCHAR
STARTCHAR u5468-ZH_CN
ENCODING 21608
SWIDTH 1000 0
DWIDTH 8 0
BBX 8 8 0 -1
BITMAP
00
7E
52
7A
52
7E
6A
BA
ENDCHAR
STARTCHAR u547D-ZH_CN
ENCODING 21629
SWIDTH 1000 0
DWIDTH 8 0
BBX 8 8 0 -1
BITMAP
00
10
28
DE
00
EE
EA
08
ENDCHAR
STARTCHAR u548C-ZH_CN
ENCODING 21644
SWIDTH 1000 0
DWIDTH 8 0
BBX 8 8 0 -1
BITMAP
00
70
2E
FA
2A
7A
AA
2E
ENDCHAR
STARTCHAR u54CD-ZH_CN
ENCODING 21709
SWIDTH 1000 0
DWIDTH 8 0
BBX 8 8 0 -1
BITMAP
00
10
FE
A2
BA
EA
3A
26
ENDCHAR
STARTCHAR u5668-ZH_CN
ENCODING 22120
SWIDTH 1000 0
DWIDTH 8 0
BBX 8 8 0 -1
BITMAP
00
6C
6C
14
FE
10
EE
6C
ENDCHAR
STARTCHAR u56DE-ZH_CN
ENCODING 22238
SWIDTH 1000 0
DWIDTH 8 0
BBX 8 8 0 -1
BITMAP
00
FE
82
BA
AA
BA
82
FE
ENDCHAR
STARTCHAR u56E0-ZH_CN
ENCODING 22240
SWIDTH 1000 0
DWIDTH 8 0
BBX 8 8 0 -1
BITMAP
00
FE
92
FE
92
AA
C6
FE
ENDCHAR
STARTCHAR u56F4-ZH_CN
ENCODING 22260
SWIDTH 1000 0
DWIDTH 8 0
BBX 8 8 0 -1
BITMAP
00
FE
92
BA
92
FE
96
FE
ENDCHAR
STARTCHAR u56FA-ZH_CN
ENCODING 22266
SWIDTH 1000 0
DWIDTH 8 0
BBX 8 8 0 -1
BITMAP
00
FE
92
BA
92
AA
BA
FE
ENDCHAR
STARTCHAR u56FD-ZH_CN
ENCODING 22269
SWIDTH 1000 0
DWIDTH 8 0
BBX 8 8 0 -1
BITMAP
00
FE
BA
92
BA
96
BA
FE
ENDCHAR
STARTCHAR u56FE-ZH_CN
ENCODING 22270
SWIDTH 1000 0
DWIDTH 8 0
BBX 8 8 0 -1
BITMAP
00
FE
9A
AA
9A
E6
92
FE
ENDCHAR
STARTCHAR u5706-ZH_CN
ENCODING 22278
SWIDTH 1000 0
DWIDTH 8 0
BBX 8 8 0 -1
BITMAP
00
FE
BA
AA
FE
D2
A6
FE
ENDCHAR
STARTCHAR u5728-ZH_CN
ENCODING 22312
SWIDTH 1000 0
DWIDTH 8 0
BBX 8 8 0 -1
BITMAP
00
20
FE
28
5C
C8
48
7E
ENDCHAR
STARTCHAR u5730-ZH_CN
ENCODING 22320
SWIDTH 1000 0
DWIDTH 8 0
BBX 8 8 0 -1
BITMAP
00
44
54
DE
76
54
D2
1E
ENDCHAR
STARTCHAR u5740-ZH_CN
ENCODING 22336
SWIDTH 1000 0
DWIDTH 8 0
BBX 8 8 0 -1
BITMAP
00
44
44
D6
54
54
D4
3E
ENDCHAR
STARTCHAR u5747-ZH_CN
ENCODING 22343
SWIDTH 1000 0
DWIDTH 8 0
BBX 8 8 0 -1
BITMAP
00
50
5E
E2
4A
66
DA
06
ENDCHAR
STARTCHAR u5757-ZH_CN
ENCODING 22359
SWIDTH 1000 0
DWIDTH 8 0
BBX 8 8 0 -1
BITMAP
00
48
5C
CC
7E
48
C8
36
ENDCHAR
STARTCHAR u578B-ZH_CN
ENCODING 22411
SWIDTH 1000 0
DWIDTH 8 0
BBX 8 8 0 -1
BITMAP
00
FA
56
FE
52
BA
10
FE
ENDCHAR
STARTCHAR u57FA-ZH_CN
ENCODING 22522
SWIDTH 1000 0
DWIDTH 8 0
BBX 8 8 0 -1
BITMAP
00
28
7C
28
FE
44
92
38
ENDCHAR
STARTCHAR u586B-ZH_CN
ENCODING 22635
SWIDTH 1000 0
DWIDTH 8 0
BBX 8 8 0 -1
BITMAP
00
48
7E
DC
5C
7E
C0
22
ENDCHAR
STARTCHAR u589E-ZH_CN
ENCODING 22686
SWIDTH 1000 0
DWIDTH 8 0
BBX 8 8 0 -1
BITMAP
00
54
7E
EA
7E
5C
D4
1C
ENDCHAR
STARTCHAR u58F0-ZH_CN
ENCODING 22768
SWIDTH 1000 0
DWIDTH 8 0
BBX 8 8 0 -1
BITMAP
00
10
FE
10
7C
54
7C
80
ENDCHAR
STARTCHAR u5907-ZH_CN
ENCODING 22791
SWIDTH 1000 0
DWIDTH 8 0
BBX 8 8 0 -1
BITMAP
00
18
68
10
EE
7C
54
7C
ENDCHAR
STARTCHAR u590D-ZH_CN
ENCODING 22797
SWIDTH 1000 0
DWIDTH 8 0
BBX 8 8 0 -1
BITMAP
00
40
7E
B8
38
68
10
EE
ENDCHAR
STARTCHAR u5916-ZH_CN
ENCODING 22806
SWIDTH 1000 0
DWIDTH 8 0
BBX 8 8 0 -1
BITMAP
00
48
78
58
BC
1A
28
C8
ENDCHAR
STARTCHAR u591A-ZH_CN
ENCODING 22810
SWIDTH 1000 0
DWIDTH 8 0
BBX 8 8 0 -1
BITMAP
00
18
68
10
EE
32
0C
70
ENDCHAR
STARTCHAR u5927-ZH_CN
ENCODING 22823
SWIDTH 1000 0
DWIDTH 8 0
BBX 8 8 0 -1
BITMAP
00
10
10
FE
10
10
28
C6
ENDCHAR
STARTCHAR u5929-ZH_CN
ENCODING 22825
SWIDTH 1000 0
DWIDTH 8 0
BBX 8 8 0 -1
BITMAP
00
7C
10
FE
10
10
28
C6
ENDCHAR
STARTCHAR u592A-ZH_CN
ENCODING 22826
SWIDTH 1000 0
DWIDTH 8 0
BBX 8 8 0 -1
BITMAP
00
10
FE
10
28
28
44
92
ENDCHAR
STARTCHAR u5931-ZH_CN
ENCODING 22833
SWIDTH 1000 0
DWIDTH 8 0
BBX 8 8 0 -1
BITMAP
00
50
7C
90
FE
10
28
C6
ENDCHAR
STARTCHAR u5939-ZH_CN
ENCODING 22841
SWIDTH 1000 0
DWIDTH 8 0
BBX 8 8 0 -1
BITMAP
00
10
FE
54
10
FE
10
EE
ENDCHAR
STARTCHAR u597D-ZH_CN
ENCODING 22909
SWIDTH 1000 0
DWIDTH 8 0
BBX 8 8 0 -1
BITMAP
00
2E
22
F4
5E
64
34
CC
ENDCHAR
STARTCHAR u59CB-ZH_CN
ENCODING 22987
SWIDTH 1000 0
DWIDTH 8 0
BBX 8 8 0 -1
BITMAP
00
24
24
FA
5E
60
3E
CE
ENDCHAR
STARTCHAR u5B50-ZH_CN
ENCODING 23376
SWIDTH 1000 0
DWIDTH 8 0
BBX 8 8 0 -1
BITMAP
00
7C
08
10
FE
10
10
30
ENDCHAR
STARTCHAR u5B57-ZH_CN
ENCODING 23383
SWIDTH 1000 0
DWIDTH 8 0
BBX 8 8 0 -1
BITMAP
00
10
FE
BA
08
FE
10
30
ENDCHAR
STARTCHAR u5B58-ZH_CN
ENCODING 23384
SWIDTH 1000 0
DWIDTH 8 0
BBX 8 8 0 -1
BITMAP
00
20
FE
2C
44
FE
48
58
ENDCHAR
STARTCHAR u5B66-ZH_CN
ENCODING 23398
SWIDTH 1000 0
DWIDTH 8 0
BBX 8 8 0 -1
BITMAP
00
54
FE
BA
08
FE
10
30
ENDCHAR
STARTCHAR u5B83-ZH_CN
ENCODING 23427
SWIDTH 1000 0
DWIDTH 8 0
BBX 8 8 0 -1
BITMAP
00
10
FE
82
4C
70
42
3E
ENDCHAR
STARTCHAR u5B89-ZH_CN
ENCODING 23433
SWIDTH 1000 0
DWIDTH 8 0
BBX 8 8 0 -1
BITMAP
00
10
FE
92
7C
28
18
E6
ENDCHAR
STARTCHAR u5B8C
ENCODING 23436
SWIDTH 1000 0
DWIDTH 8 0
BBX 8 8 0 -1
BITMAP
00
10
FE
BA
00
FE
28
CE
ENDCHAR
STARTCHAR u5B9A-ZH_CN
ENCODING 23450
SWIDTH 1000 0
DWIDTH 8 0
BBX 8 8 0 -1
BITMAP
00
10
FE
BA
10
5C
50
BE
ENDCHAR
STARTCHAR u5B9E-ZH_CN
ENCODING 23454
SWIDTH 1000 0
DWIDTH 8 0
BBX 8 8 0 -1
BITMAP
00
10
FE
8A
28
FE
10
E6
ENDCHAR
STARTCHAR u5BB9-ZH_CN
ENCODING 23481
SWIDTH 1000 0
DWIDTH 8 0
BBX 8 8 0 -1
BITMAP
00
10
FE
AA
54
28
FE
38
ENDCHAR
STARTCHAR u5BBD-ZH_CN
ENCODING 23485
SWIDTH 1000 0
DWIDTH 8 0
BBX 8 8 0 -1
BITMAP
00
10
FE
AA
7C
54
1A
EE
ENDCHAR
STARTCHAR u5BF8-ZH_CN
ENCODING 23544
SWIDTH 1000 0
DWIDTH 8 0
BBX 8 8 0 -1
BITMAP
00
08
FE
08
48
28
08
18
ENDCHAR
STARTCHAR u5BF9-ZH_CN
ENCODING 23545
SWIDTH 1000 0
DWIDTH 8 0
BBX 8 8 0 -1
BITMAP
00
04
FE
24
B4
4C
A4
0C
ENDCHAR
STARTCHAR u5BFC-ZH_CN
ENCODING 23548
SWIDTH 1000 0
DWIDTH 8 0
BBX 8 8 0 -1
BITMAP
00
7C
44
7C
42
FE
28
18
ENDCHAR
STARTCHAR u5C04-ZH_CN
ENCODING 23556
SWIDTH 1000 0
DWIDTH 8 0
BBX 8 8 0 -1
BITMAP
00
22
7E
52
7A
D6
32
D6
ENDCHAR
STARTCHAR u5C06-ZH_CN
ENCODING 23558
SWIDTH 1000 0
DWIDTH 8 0
BBX 8 8 0 -1
BITMAP
00
4C
54
C8
54
FE
54
4C
ENDCHAR
STARTCHAR u5C0F-ZH_CN
ENCODING 23567
SWIDTH 1000 0
DWIDTH 8 0
BBX 8 8 0 -1
BITMAP
00
10
10
54
52
92
10
30
ENDCHAR
STARTCHAR u5C3A-ZH_CN
ENCODING 23610
SWIDTH 1000 0
DWIDTH 8 0
BBX 8 8 0 -1
BITMAP
00
7C
44
7C
50
48
44
82
ENDCHAR
STARTCHAR u5C3E-ZH_CN
ENCODING 23614
SWIDTH 1000 0
DWIDTH 8 0
BBX 8 8 0 -1
BITMAP
00
7E
7E
4C
78
4E
78
8E
ENDCHAR
STARTCHAR u5C40-ZH_CN
ENCODING 23616
SWIDTH 1000 0
DWIDTH 8 0
BBX 8 8 0 -1
BITMAP
00
7C
44
7C
40
7E
6A
BA
ENDCHAR
STARTCHAR u5C4F-ZH_CN
ENCODING 23631
SWIDTH 1000 0
DWIDTH 8 0
BBX 8 8 0 -1
BITMAP
00
7E
7E
54
7E
54
7E
A4
ENDCHAR
STARTCHAR u5C55-ZH_CN
ENCODING 23637
SWIDTH 1000 0
DWIDTH 8 0
BBX 8 8 0 -1
BITMAP
00
7E
42
7E
54
7E
68
B6
ENDCHAR
STARTCHAR u5DE5-ZH_CN
ENCODING 24037
SWIDTH 1000 0
DWIDTH 8 0
BBX 8 8 0 -1
BITMAP
00
00
7C
10
10
10
10
FE
ENDCHAR
STARTCHAR u5DE6-ZH_CN
ENCODING 24038
SWIDTH 1000 0
DWIDTH 8 0
BBX 8 8 0 -1
BITMAP
00
20
FE
20
3C
48
88
7E
ENDCHAR
STARTCHAR u5DEE-ZH_CN
ENCODING 24046
SWIDTH 1000 0
DWIDTH 8 0
BBX 8 8 0 -1
BITMAP
00
44
FE
10
FE
3C
48
BE
ENDCHAR
STARTCHAR u5DF2-ZH_CN
ENCODING 24050
SWIDTH 1000 0
DWIDTH 8 0
BBX 8 8 0 -1
BITMAP
00
FC
04
84
FC
80
82
7E
ENDCHAR
STARTCHAR u5E03-ZH_CN
ENCODING 24067
SWIDTH 1000 0
DWIDTH 8 0
BBX 8 8 0 -1
BITMAP
00
20
FE
28
7E
AA
2A
08
ENDCHAR
STARTCHAR u5E0C-ZH_CN
ENCODING 24076
SWIDTH 1000 0
DWIDTH 8 0
BBX 8 8 0 -1
BITMAP
00
64
18
24
FE
48
BE
2A
ENDCHAR
STARTCHAR u5E26-ZH_CN
ENCODING 24102
SWIDTH 1000 0
DWIDTH 8 0
BBX 8 8 0 -1
BITMAP
00
54
FE
54
FE
92
7C
54
ENDCHAR
STARTCHAR u5E27-ZH_CN
ENCODING 24103
SWIDTH 1000 0
DWIDTH 8 0
BBX 8 8 0 -1
BITMAP
00
48
CE
DC
D4
5C
48
72
ENDCHAR
STARTCHAR u5E38-ZH_CN
ENCODING 24120
SWIDTH 1000 0
DWIDTH 8 0
BBX 8 8 0 -1
BITMAP
00
54
FE
AA
38
FE
92
10
ENDCHAR
STARTCHAR u5E3D-ZH_CN
ENCODING 24125
SWIDTH 1000 0
DWIDTH 8 0
BBX 8 8 0 -1
BITMAP
00
7E
E2
EE
D4
5C
54
5C
ENDCHAR
STARTCHAR u5E45-ZH_CN
ENCODING 24133
SWIDTH 1000 0
DWIDTH 8 0
BBX 8 8 0 -1
BITMAP
00
7E
D4
DC
C0
7E
6A
7E
ENDCHAR
STARTCHAR u5E55-ZH_CN
ENCODING 24149
SWIDTH 1000 0
DWIDTH 8 0
BBX 8 8 0 -1
BITMAP
00
28
FE
38
FE
56
BC
34
ENDCHAR
STARTCHAR u5E73-ZH_CN
ENCODING 24179
SWIDTH 1000 0
DWIDTH 8 0
BBX 8 8 0 -1
BITMAP
00
FE
10
54
18
FE
10
10
ENDCHAR
STARTCHAR u5E76-ZH_CN
ENCODING 24182
SWIDTH 1000 0
DWIDTH 8 0
BBX 8 8 0 -1
BITMAP
00
24
08
7C
28
FE
28
48
ENDCHAR
STARTCHAR u5E8F-ZH_CN
ENCODING 24207
SWIDTH 1000 0
DWIDTH 8 0
BBX 8 8 0 -1
BITMAP
00
08
7E
5C
44
7E
4A
98
ENDCHAR
STARTCHAR u5E94-ZH_CN
ENCODING 24212
SWIDTH 1000 0
DWIDTH 8 0
BBX 8 8 0 -1
BITMAP
00
08
7E
40
42
6A
54
BE
ENDCHAR
STARTCHAR u5EA6-ZH_CN
ENCODING 24230
SWIDTH 1000 0
DWIDTH 8 0
BBX 8 8 0 -1
BITMAP
00
08
7E
54
7E
54
48
B6
ENDCHAR
STARTCHAR u5EF6-ZH_CN
ENCODING 24310
SWIDTH 1000 0
DWIDTH 8 0
BBX 8 8 0 -1
BITMAP
00
C2
5C
86
54
DE
40
BE
ENDCHAR
STARTCHAR u5EFA-ZH_CN
ENCODING 24314
SWIDTH 1000 0
DWIDTH 8 0
BBX 8 8 0 -1
BITMAP
00
DC
4E
9C
48
DE
48
BE
ENDCHAR
STARTCHAR u5F00-ZH_CN
ENCODING 24320
SWIDTH 1000 0
DWIDTH 8 0
BBX 8 8 0 -1
BITMAP
00
7C
28
28
FE
28
28
48
ENDCHAR
STARTCHAR u5F02-ZH_CN
ENCODING 24322
SWIDTH 1000 0
DWIDTH 8 0
BBX 8 8 0 -1
BITMAP
00
7C
44
7C
42
FE
28
48
ENDCHAR
STARTCHAR u5F0F-ZH_CN
ENCODING 24335
SWIDTH 1000 0
DWIDTH 8 0
BBX 8 8 0 -1
BITMAP
00
0A
FE
08
78
24
34
C2
ENDCHAR
STARTCHAR u5F15-ZH_CN
ENCODING 24341
SWIDTH 1000 0
DWIDTH 8 0
BBX 8 8 0 -1
BITMAP
00
F2
12
F2
82
F2
12
32
ENDCHAR
STARTCHAR u5F31-ZH_CN
ENCODING 24369
SWIDTH 1000 0
DWIDTH 8 0
BBX 8 8 0 -1
BITMAP
00
EE
22
EE
88
66
AA
66
ENDCHAR
STARTCHAR u5F39-ZH_CN
ENCODING 24377
SWIDTH 1000 0
DWIDTH 8 0
BBX 8 8 0 -1
BITMAP
00
D2
44
DE
9E
C8
7E
C8
ENDCHAR
STARTCHAR u5F3A-ZH_CN
ENCODING 24378
SWIDTH 1000 0
DWIDTH 8 0
BBX 8 8 0 -1
BITMAP
00
DC
5C
C8
9C
DC
4A
FE
ENDCHAR
STARTCHAR u5F53-ZH_CN
ENCODING 24403
SWIDTH 1000 0
DWIDTH 8 0
BBX 8 8 0 -1
BITMAP
00
52
34
7E
02
3E
02
7E
ENDCHAR
STARTCHAR u5F55-ZH_CN
ENCODING 24405
SWIDTH 1000 0
DWIDTH 8 0
BBX 8 8 0 -1
BITMAP
00
7C
04
FE
10
B4
58
B6
ENDCHAR
STARTCHAR u5F62-ZH_CN
ENCODING 24418
SWIDTH 1000 0
DWIDTH 8 0
BBX 8 8 0 -1
BITMAP
00
FA
54
52
FC
50
52
94
ENDCHAR
STARTCHAR u5F71-ZH_CN
ENCODING 24433
SWIDTH 1000 0
DWIDTH 8 0
BBX 8 8 0 -1
BITMAP
00
72
54
FA
54
70
22
AC
ENDCHAR
STARTCHAR u5F84-ZH_CN
ENCODING 24452
SWIDTH 1000 0
DWIDTH 8 0
BBX 8 8 0 -1
BITMAP
00
5C
84
48
F6
5C
48
7E
ENDCHAR
STARTCHAR u5F85-ZH_CN
ENCODING 24453
SWIDTH 1000 0
DWIDTH 8 0
BBX 8 8 0 -1
BITMAP
00
48
9C
48
FE
44
7E
54
ENDCHAR
STARTCHAR u5F88-ZH_CN
ENCODING 24456
SWIDTH 1000 0
DWIDTH 8 0
BBX 8 8 0 -1
BITMAP
00
5E
92
5E
D2
5E
54
5A
ENDCHAR
STARTCHAR u5FAA-ZH_CN
ENCODING 24490
SWIDTH 1000 0
DWIDTH 8 0
BBX 8 8 0 -1
BITMAP
00
42
9C
5E
D4
5E
6E
4E
ENDCHAR
STARTCHAR u5FAE-ZH_CN
ENCODING 24494
SWIDTH 1000 0
DWIDTH 8 0
BBX 8 8 0 -1
BITMAP
00
54
BE
46
FE
56
54
6A
ENDCHAR
STARTCHAR u5FB7-ZH_CN
ENCODING 24503
SWIDTH 1000 0
DWIDTH 8 0
BBX 8 8 0 -1
BITMAP
00
48
BE
5C
FE
40
72
6E
ENDCHAR
STARTCHAR u5FC3-ZH_CN
ENCODING 24515
SWIDTH 1000 0
DWIDTH 8 0
BBX 8 8 0 -1
BITMAP
00
20
10
20
64
62
A4
3C
ENDCHAR
STARTCHAR u5FC5-ZH_CN
ENCODING 24517
SWIDTH 1000 0
DWIDTH 8 0
BBX 8 8 0 -1
BITMAP
00
20
14
24
AA
B2
20
DE
ENDCHAR
STARTCHAR u5FD7-ZH_CN
ENCODING 24535
SWIDTH 1000 0
DWIDTH 8 0
BBX 8 8 0 -1
BITMAP
00
10
FE
10
7C
00
CA
BA
ENDCHAR
STARTCHAR u5FEB-ZH_CN
ENCODING 24555
SWIDTH 1000 0
DWIDTH 8 0
BBX 8 8 0 -1
BITMAP
00
48
DC
CC
7E
48
48
76
ENDCHAR
STARTCHAR u5FFD-ZH_CN
ENCODING 24573
SWIDTH 1000 0
DWIDTH 8 0
BBX 8 8 0 -1
BITMAP
00
40
7E
AA
2A
54
CA
BA
ENDCHAR
STARTCHAR u6001-ZH_CN
ENCODING 24577
SWIDTH 1000 0
DWIDTH 8 0
BBX 8 8 0 -1
BITMAP
00
10
FE
28
C6
10
CA
BA
ENDCHAR
STARTCHAR u6020-ZH_CN
ENCODING 24608
SWIDTH 1000 0
DWIDTH 8 0
BBX 8 8 0 -1
BITMAP
00
10
24
FA
44
7C
CA
BA
ENDCHAR
STARTCHAR u6025-ZH_CN
ENCODING 24613
SWIDTH 1000 0
DWIDTH 8 0
BBX 8 8 0 -1
BITMAP
00
38
C8
7C
04
7C
CA
BA
ENDCHAR
STARTCHAR u603B-ZH_CN
ENCODING 24635
SWIDTH 1000 0
DWIDTH 8 0
BBX 8 8 0 -1
BITMAP
00
28
7C
44
7C
10
CA
BA
ENDCHAR
STARTCHAR u6062-ZH_CN
ENCODING 24674
SWIDTH 1000 0
DWIDTH 8 0
BBX 8 8 0 -1
BITMAP
00
50
FE
D0
64
56
44
5A
ENDCHAR
STARTCHAR u606F-ZH_CN
ENCODING 24687
SWIDTH 1000 0
DWIDTH 8 0
BBX 8 8 0 -1
BITMAP
00
10
7C
44
7C
7C
CA
BA
ENDCHAR
STARTCHAR u60AC-ZH_CN
ENCODING 24748
SWIDTH 1000 0
DWIDTH 8 0
BBX 8 8 0 -1
BITMAP
00
7C
44
7C
44
FE
CA
BA
ENDCHAR
STARTCHAR u60C5-ZH_CN
ENCODING 24773
SWIDTH 1000 0
DWIDTH 8 0
BBX 8 8 0 -1
BITMAP
00
48
DC
C8
7E
54
5C
54
ENDCHAR
STARTCHAR u610F-ZH_CN
ENCODING 24847
SWIDTH 1000 0
DWIDTH 8 0
BBX 8 8 0 -1
BITMAP
00
10
7C
28
FE
38
CA
BA
ENDCHAR
STARTCHAR u611F-ZH_CN
ENCODING 24863
SWIDTH 1000 0
DWIDTH 8 0
BBX 8 8 0 -1
BITMAP
00
04
7E
74
B2
00
CA
BA
ENDCHAR
STARTCHAR u6162-ZH_CN
ENCODING 24930
SWIDTH 1000 0
DWIDTH 8 0
BBX 8 8 0 -1
BITMAP
00
5C
D4
FE
7E
54
48
76
ENDCHAR
STARTCHAR u620F-ZH_CN
ENCODING 25103
SWIDTH 1000 0
DWIDTH 8 0
BBX 8 8 0 -1
BITMAP
00
EA
28
BE
A8
4A
A4
1A
ENDCHAR
STARTCHAR u6210-ZH_CN
ENCODING 25104
SWIDTH 1000 0
DWIDTH 8 0
BBX 8 8 0 -1
BITMAP
00
04
7E
44
74
56
54
AA
ENDCHAR
STARTCHAR u6216-ZH_CN
ENCODING 25110
SWIDTH 1000 0
DWIDTH 8 0
BBX 8 8 0 -1
BITMAP
00
0A
FE
08
68
6A
04
DA
ENDCHAR
STARTCHAR u622A-ZH_CN
ENCODING 25130
SWIDTH 1000 0
DWIDTH 8 0
BBX 8 8 0 -1
BITMAP
00
2A
78
FE
28
7A
D4
7A
ENDCHAR
STARTCHAR u6240-ZH_CN
ENCODING 25152
SWIDTH 1000 0
DWIDTH 8 0
BBX 8 8 0 -1
BITMAP
00
12
6C
78
5E
7A
4A
92
ENDCHAR
STARTCHAR u6247-ZH_CN
ENCODING 25159
SWIDTH 1000 0
DWIDTH 8 0
BBX 8 8 0 -1
BITMAP
00
10
7C
44
7E
6A
5E
AA
ENDCHAR
STARTCHAR u624B-ZH_CN
ENCODING 25163
SWIDTH 1000 0
DWIDTH 8 0
BBX 8 8 0 -1
BITMAP
00
0C
70
FE
10
FE
10
30
ENDCHAR
STARTCHAR u6253-ZH_CN
ENCODING 25171
SWIDTH 1000 0
DWIDTH 8 0
BBX 8 8 0 -1
BITMAP
00
5E
E4
44
64
C4
44
CC
ENDCHAR
STARTCHAR u6263-ZH_CN
ENCODING 25187
SWIDTH 1000 0
DWIDTH 8 0
BBX 8 8 0 -1
BITMAP
00
40
FE
52
72
D2
52
DE
ENDCHAR
STARTCHAR u6267-ZH_CN
ENCODING 25191
SWIDTH 1000 0
DWIDTH 8 0
BBX 8 8 0 -1
BITMAP
00
50
FC
54
74
DC
54
E6
ENDCHAR
STARTCHAR u6269-ZH_CN
ENCODING 25193
SWIDTH 1000 0
DWIDTH 8 0
BBX 8 8 0 -1
BITMAP
00
44
DE
50
50
D0
50
E0
ENDCHAR
STARTCHAR u626B-ZH_CN
ENCODING 25195
SWIDTH 1000 0
DWIDTH 8 0
BBX 8 8 0 -1
BITMAP
00
5E
E2
42
6E
C2
42
DE
ENDCHAR
STARTCHAR u627E-ZH_CN
ENCODING 25214
SWIDTH 1000 0
DWIDTH 8 0
BBX 8 8 0 -1
BITMAP
00
4A
E8
5E
68
CA
44
DA
ENDCHAR
STARTCHAR u62A4-ZH_CN
ENCODING 25252
SWIDTH 1000 0
DWIDTH 8 0
BBX 8 8 0 -1
BITMAP
00
48
DE
52
5E
D0
50
E0
ENDCHAR
STARTCHAR u62A5-ZH_CN
ENCODING 25253
SWIDTH 1000 0
DWIDTH 8 0
BBX 8 8 0 -1
BITMAP
00
5E
F2
50
7E
DA
54
DA
ENDCHAR
STARTCHAR u62C9-ZH_CN
ENCODING 25289
SWIDTH 1000 0
DWIDTH 8 0
BBX 8 8 0 -1
BITMAP
00
48
FE
44
54
D4
48
FE
ENDCHAR
STARTCHAR u62D2-ZH_CN
ENCODING 25298
SWIDTH 1000 0
DWIDTH 8 0
BBX 8 8 0 -1
BITMAP
00
5E
F0
5E
72
DE
50
DE
ENDCHAR
STARTCHAR u62DF-ZH_CN
ENCODING 25311
SWIDTH 1000 0
DWIDTH 8 0
BBX 8 8 0 -1
BITMAP
00
52
F6
52
7A
D2
44
DA
ENDCHAR
STARTCHAR u62E8-ZH_CN
ENCODING 25320
SWIDTH 1000 0
DWIDTH 8 0
BBX 8 8 0 -1
BITMAP
00
6A
FE
50
5C
D4
68
D6
ENDCHAR
STARTCHAR u62E9-ZH_CN
ENCODING 25321
SWIDTH 1000 0
DWIDTH 8 0
BBX 8 8 0 -1
BITMAP
00
5C
D4
48
76
C8
7E
C8
ENDCHAR
STARTCHAR u62FE-ZH_CN
ENCODING 25342
SWIDTH 1000 0
DWIDTH 8 0
BBX 8 8 0 -1
BITMAP
00
48
D4
6E
40
DC
54
DC
ENDCHAR
STARTCHAR u6301-ZH_CN
ENCODING 25345
SWIDTH 1000 0
DWIDTH 8 0
BBX 8 8 0 -1
BITMAP
00
48
DC
48
7E
C4
7E
D4
ENDCHAR
STARTCHAR u6307-ZH_CN
ENCODING 25351
SWIDTH 1000 0
DWIDTH 8 0
BBX 8 8 0 -1
BITMAP
00
52
DC
52
5E
C0
5E
DE
ENDCHAR
STARTCHAR u6309-ZH_CN
ENCODING 25353
SWIDTH 1000 0
DWIDTH 8 0
BBX 8 8 0 -1
BITMAP
00
48
FE
6A
7E
D4
4C
F2
ENDCHAR
STARTCHAR u632F-ZH_CN
ENCODING 25391
SWIDTH 1000 0
DWIDTH 8 0
BBX 8 8 0 -1
BITMAP
00
5E
D0
56
50
DE
74
DA
ENDCHAR
STARTCHAR u6362-ZH_CN
ENCODING 25442
SWIDTH 1000 0
DWIDTH 8 0
BBX 8 8 0 -1
BITMAP
00
4C
D4
7E
6A
FE
48
F6
ENDCHAR
STARTCHAR u636E-ZH_CN
ENCODING 25454
SWIDTH 1000 0
DWIDTH 8 0
BBX 8 8 0 -1
BITMAP
00
5E
DE
54
5E
D4
6A
CE
ENDCHAR
STARTCHAR u6377-ZH_CN
ENCODING 25463
SWIDTH 1000 0
DWIDTH 8 0
BBX 8 8 0 -1
BITMAP
00
44
DE
46
5C
C6
54
EE
ENDCHAR
STARTCHAR u6392-ZH_CN
ENCODING 25490
SWIDTH 1000 0
DWIDTH 8 0
BBX 8 8 0 -1
BITMAP
00
54
F6
54
76
D4
76
D4
ENDCHAR
STARTCHAR u63A5-ZH_CN
ENCODING 25509
SWIDTH 1000 0
DWIDTH 8 0
BBX 8 8 0 -1
BITMAP
00
48
FE
54
7E
D4
4C
F2
ENDCHAR
STARTCHAR u63A7-ZH_CN
ENCODING 25511
SWIDTH 1000 0
DWIDTH 8 0
BBX 8 8 0 -1
BITMAP
00
48
FE
76
40
DC
48
FE
ENDCHAR
STARTCHAR u63A8-ZH_CN
ENCODING 25512
SWIDTH 1000 0
DWIDTH 8 0
BBX 8 8 0 -1
BITMAP
00
54
DE
74
5E
D4
54
DE
ENDCHAR
STARTCHAR u63CF-ZH_CN
ENCODING 25551
SWIDTH 1000 0
DWIDTH 8 0
BBX 8 8 0 -1
BITMAP
00
54
FE
54
7E
FE
6A
FE
ENDCHAR
STARTCHAR u63D0-ZH_CN
ENCODING 25552
SWIDTH 1000 0
DWIDTH 8 0
BBX 8 8 0 -1
BITMAP
00
4C
EC
5E
44
D6
54
EE
ENDCHAR
STARTCHAR u63D2-ZH_CN
ENCODING 25554
SWIDTH 1000 0
DWIDTH 8 0
BBX 8 8 0 -1
BITMAP
00
44
D8
7E
48
FE
6A
FE
ENDCHAR
STARTCHAR u63F4-ZH_CN
ENCODING 25588
SWIDTH 1000 0
DWIDTH 8 0
BBX 8 8 0 -1
BITMAP
00
46
F8
6A
5E
CA
54
EA
ENDCHAR
STARTCHAR u6447-ZH_CN
ENCODING 25671
SWIDTH 1000 0
DWIDTH 8 0
BBX 8 8 0 -1
BITMAP
00
46
DA
48
7E
C8
6A
FE
ENDCHAR
STARTCHAR u6478-ZH_CN
ENCODING 25720
SWIDTH 1000 0
DWIDTH 8 0
BBX 8 8 0 -1
BITMAP
00
54
FE
5C
54
FE
48
F6
ENDCHAR
STARTCHAR u64AD-ZH_CN
ENCODING 25773
SWIDTH 1000 0
DWIDTH 8 0
BBX 8 8 0 -1
BITMAP
00
7E
D4
7E
5C
EA
5C
DC
ENDCHAR
STARTCHAR u64CD-ZH_CN
ENCODING 25805
SWIDTH 1000 0
DWIDTH 8 0
BBX 8 8 0 -1
BITMAP
00
5C
D4
7E
6A
FE
5C
EA
ENDCHAR
STARTCHAR u64E6-ZH_CN
ENCODING 25830
SWIDTH 1000 0
DWIDTH 8 0
BBX 8 8 0 -1
BITMAP
00
48
FE
6A
54
E2
5C
EA
ENDCHAR
STARTCHAR u652F-ZH_CN
ENCODING 25903
SWIDTH 1000 0
DWIDTH 8 0
BBX 8 8 0 -1
BITMAP
00
10
FE
10
78
28
10
EE
ENDCHAR
STARTCHAR u6536-ZH_CN
ENCODING 25910
SWIDTH 1000 0
DWIDTH 8 0
BBX 8 8 0 -1
BITMAP
00
28
AE
BA
AA
AA
E4
3A
ENDCHAR
STARTCHAR u6539-ZH_CN
ENCODING 25913
SWIDTH 1000 0
DWIDTH 8 0
BBX 8 8 0 -1
BITMAP
00
E8
2E
FA
8A
AA
C4
1A
ENDCHAR
STARTCHAR u653E-ZH_CN
ENCODING 25918
SWIDTH 1000 0
DWIDTH 8 0
BBX 8 8 0 -1
BITMAP
00
24
F6
4A
7A
5A
54
BA
ENDCHAR
STARTCHAR u6545-ZH_CN
ENCODING 25925
SWIDTH 1000 0
DWIDTH 8 0
BBX 8 8 0 -1
BITMAP
00
48
EE
5A
EA
AA
E4
1A
ENDCHAR
STARTCHAR u6548-ZH_CN
ENCODING 25928
SWIDTH 1000 0
DWIDTH 8 0
BBX 8 8 0 -1
BITMAP
00
24
F6
5A
8A
5A
24
DA
ENDCHAR
STARTCHAR u654F-ZH_CN
ENCODING 25935
SWIDTH 1000 0
DWIDTH 8 0
BBX 8 8 0 -1
BITMAP
00
84
F6
6A
7A
AA
F4
2A
ENDCHAR
STARTCHAR u6551-ZH_CN
ENCODING 25937
SWIDTH 1000 0
DWIDTH 8 0
BBX 8 8 0 -1
BITMAP
00
24
F6
2A
BA
6A
B4
6A
ENDCHAR
STARTCHAR u6559-ZH_CN
ENCODING 25945
SWIDTH 1000 0
DWIDTH 8 0
BBX 8 8 0 -1
BITMAP
00
24
76
2A
FA
5A
B4
2A
ENDCHAR
STARTCHAR u6570-ZH_CN
ENCODING 25968
SWIDTH 1000 0
DWIDTH 8 0
BBX 8 8 0 -1
BITMAP
00
AC
76
AA
4A
FA
54
EA
ENDCHAR
STARTCHAR u6574-ZH_CN
ENCODING 25972
SWIDTH 1000 0
DWIDTH 8 0
BBX 8 8 0 -1
BITMAP
00
26
FA
74
AA
FE
5C
FE
ENDCHAR
STARTCHAR u6587-ZH_CN
ENCODING 25991
SWIDTH 1000 0
DWIDTH 8 0
BBX 8 8 0 -1
BITMAP
00
10
FE
28
28
10
28
C6
ENDCHAR
STARTCHAR u659C-ZH_CN
ENCODING 26012
SWIDTH 1000 0
DWIDTH 8 0
BBX 8 8 0 -1
BITMAP
00
22
5A
F2
2A
F2
2E
B2
ENDCHAR
STARTCHAR u65AD-ZH_CN
ENCODING 26029
SWIDTH 1000 0
DWIDTH 8 0
BBX 8 8 0 -1
BITMAP
00
D2
AC
F8
AE
DA
8A
F2
ENDCHAR
STARTCHAR u65AF-ZH_CN
ENCODING 26031
SWIDTH 1000 0
DWIDTH 8 0
BBX 8 8 0 -1
BITMAP
00
52
FC
58
7E
FA
0A
92
ENDCHAR
STARTCHAR u65B0-ZH_CN
ENCODING 26032
SWIDTH 1000 0
DWIDTH 8 0
BBX 8 8 0 -1
BITMAP
00
22
FC
58
2E
FA
22
AA
ENDCHAR
STARTCHAR u65B9-ZH_CN
ENCODING 26041
SWIDTH 1000 0
DWIDTH 8 0
BBX 8 8 0 -1
BITMAP
00
10
FE
20
3C
24
44
8C
ENDCHAR
STARTCHAR u65CB-ZH_CN
ENCODING 26059
SWIDTH 1000 0
DWIDTH 8 0
BBX 8 8 0 -1
BITMAP
00
48
EE
50
6E
A6
2C
76
ENDCHAR
STARTCHAR u65E0-ZH_CN
ENCODING 26080
SWIDTH 1000 0
DWIDTH 8 0
BBX 8 8 0 -1
BITMAP
00
7C
10
10
FE
18
2A
CE
ENDCHAR
STARTCHAR u65E5-ZH_CN
ENCODING 26085
SWIDTH 1000 0
DWIDTH 8 0
BBX 8 8 0 -1
BITMAP
00
7E
42
42
7E
42
42
7E
ENDCHAR
STARTCHAR u65F6-ZH_CN
ENCODING 26102
SWIDTH 1000 0
DWIDTH 8 0
BBX 8 8 0 -1
BITMAP
00
04
FE
A4
F4
AC
E4
0C
ENDCHAR
STARTCHAR u660E-ZH_CN
ENCODING 26126
SWIDTH 1000 0
DWIDTH 8 0
BBX 8 8 0 -1
BITMAP
00
EE
AA
EE
AA
EE
12
26
ENDCHAR
STARTCHAR u661F-ZH_CN
ENCODING 26143
SWIDTH 1000 0
DWIDTH 8 0
BBX 8 8 0 -1
BITMAP
00
7C
44
7E
50
BC
10
FE
ENDCHAR
STARTCHAR u6620-ZH_CN
ENCODING 26144
SWIDTH 1000 0
DWIDTH 8 0
BBX 8 8 0 -1
BITMAP
00
08
FC
B4
FE
A8
E8
36
ENDCHAR
STARTCHAR u662F-ZH_CN
ENCODING 26159
SWIDTH 1000 0
DWIDTH 8 0
BBX 8 8 0 -1
BITMAP
00
7C
44
FE
10
5C
50
BE
ENDCHAR
STARTCHAR u663E-ZH_CN
ENCODING 26174
SWIDTH 1000 0
DWIDTH 8 0
BBX 8 8 0 -1
BITMAP
00
7C
44
7C
AA
6C
28
FE
ENDCHAR
STARTCHAR u666E-ZH_CN
ENCODING 26222
SWIDTH 1000 0
DWIDTH 8 0
BBX 8 8 0 -1
BITMAP
00
44
FE
6C
28
FE
44
7C
ENDCHAR
STARTCHAR u666F-ZH_CN
ENCODING 26223
SWIDTH 1000 0
DWIDTH 8 0
BBX 8 8 0 -1
BITMAP
00
7C
44
FE
44
7C
54
B2
ENDCHAR
STARTCHAR u6682-ZH_CN
ENCODING 26242
SWIDTH 1000 0
DWIDTH 8 0
BBX 8 8 0 -1
BITMAP
00
2E
F8
AE
F4
24
7C
7C
ENDCHAR
STARTCHAR u66F2-ZH_CN
ENCODING 26354
SWIDTH 1000 0
DWIDTH 8 0
BBX 8 8 0 -1
BITMAP
00
28
FE
AA
FE
AA
AA
FE
ENDCHAR
STARTCHAR u66F4-ZH_CN
ENCODING 26356
SWIDTH 1000 0
DWIDTH 8 0
BBX 8 8 0 -1
BITMAP
00
FE
54
7C
54
7C
30
CE
ENDCHAR
STARTCHAR u66FF-ZH_CN
ENCODING 26367
SWIDTH 1000 0
DWIDTH 8 0
BBX 8 8 0 -1
BITMAP
00
44
EE
44
AA
7C
44
7C
ENDCHAR
STARTCHAR u6700-ZH_CN
ENCODING 26368
SWIDTH 1000 0
DWIDTH 8 0
BBX 8 8 0 -1
BITMAP
00
7C
44
FE
52
5A
F4
1A
ENDCHAR
STARTCHAR u6709-ZH_CN
ENCODING 26377
SWIDTH 1000 0
DWIDTH 8 0
BBX 8 8 0 -1
BITMAP
00
20
FE
20
7C
A4
3C
24
ENDCHAR
STARTCHAR u671F-ZH_CN
ENCODING 26399
SWIDTH 1000 0
DWIDTH 8 0
BBX 8 8 0 -1
BITMAP
00
5E
FA
5E
7A
FE
0A
96
ENDCHAR
STARTCHAR u672A-ZH_CN
ENCODING 26410
SWIDTH 1000 0
DWIDTH 8 0
BBX 8 8 0 -1
BITMAP
00
10
7C
10
FE
10
38
D6
ENDCHAR
STARTCHAR u672C-ZH_CN
ENCODING 26412
SWIDTH 1000 0
DWIDTH 8 0
BBX 8 8 0 -1
BITMAP
00
10
FE
10
38
54
BA
10
ENDCHAR
STARTCHAR u673A-ZH_CN
ENCODING 26426
SWIDTH 1000 0
DWIDTH 8 0
BBX 8 8 0 -1
BITMAP
00
5C
D4
54
D4
D4
54
66
ENDCHAR
STARTCHAR u6746-ZH_CN
ENCODING 26438
SWIDTH 1000 0
DWIDTH 8 0
BBX 8 8 0 -1
BITMAP
00
5C
C8
48
FE
C8
48
48
ENDCHAR
STARTCHAR u6761-ZH_CN
ENCODING 26465
SWIDTH 1000 0
DWIDTH 8 0
BBX 8 8 0 -1
BITMAP
00
18
68
10
EE
7C
10
B2
ENDCHAR
STARTCHAR u6765-ZH_CN
ENCODING 26469
SWIDTH 1000 0
DWIDTH 8 0
BBX 8 8 0 -1
BITMAP
00
10
FE
54
10
FE
38
D6
ENDCHAR
STARTCHAR u677F-ZH_CN
ENCODING 26495
SWIDTH 1000 0
DWIDTH 8 0
BBX 8 8 0 -1
BITMAP
00
46
D8
50
DE
DA
64
5A
ENDCHAR
STARTCHAR u6781-ZH_CN
ENCODING 26497
SWIDTH 1000 0
DWIDTH 8 0
BBX 8 8 0 -1
BITMAP
00
7C
D4
56
D2
DA
64
5A
ENDCHAR
STARTCHAR u67C4-ZH_CN
ENCODING 26564
SWIDTH 1000 0
DWIDTH 8 0
BBX 8 8 0 -1
BITMAP
00
7E
C8
7E
EA
F6
62
66
ENDCHAR
STARTCHAR u67E5-ZH_CN
ENCODING 26597
SWIDTH 1000 0
DWIDTH 8 0
BBX 8 8 0 -1
BITMAP
00
10
FE
38
D6
7C
7C
FE
ENDCHAR
STARTCHAR u6807-ZH_CN
ENCODING 26631
SWIDTH 1000 0
DWIDTH 8 0
BBX 8 8 0 -1
BITMAP
00
5C
C0
7E
C8
EA
6A
58
ENDCHAR
STARTCHAR u680F-ZH_CN
ENCODING 26639
SWIDTH 1000 0
DWIDTH 8 0
BBX 8 8 0 -1
BITMAP
00
52
C4
7E
C0
DC
40
7E
ENDCHAR
STARTCHAR u6821-ZH_CN
ENCODING 26657
SWIDTH 1000 0
DWIDTH 8 0
BBX 8 8 0 -1
BITMAP
00
48
FE
54
E2
D4
48
76
ENDCHAR
STARTCHAR u6837-ZH_CN
ENCODING 26679
SWIDTH 1000 0
DWIDTH 8 0
BBX 8 8 0 -1
BITMAP
00
54
FE
48
DC
C8
7E
48
ENDCHAR
STARTCHAR u683C-ZH_CN
ENCODING 26684
SWIDTH 1000 0
DWIDTH 8 0
BBX 8 8 0 -1
BITMAP
00
4C
D4
48
F6
DC
54
5C
ENDCHAR
STARTCHAR u6846-ZH_CN
ENCODING 26694
SWIDTH 1000 0
DWIDTH 8 0
BBX 8 8 0 -1
BITMAP
00
5E
F0
5E
F4
DE
50
5E
ENDCHAR
STARTCHAR u68C0-ZH_CN
ENCODING 26816
SWIDTH 1000 0
DWIDTH 8 0
BBX 8 8 0 -1
BITMAP
00
48
D4
6E
C0
EA
54
7E
ENDCHAR
STARTCHAR u6A21-ZH_CN
ENCODING 27169
SWIDTH 1000 0
DWIDTH 8 0
BBX 8 8 0 -1
BITMAP
00
54
FE
5C
D4
FE
48
76
ENDCHAR
STARTCHAR u6A2A-ZH_CN
ENCODING 27178
SWIDTH 1000 0
DWIDTH 8 0
BBX 8 8 0 -1
BITMAP
00
54
FE
54
FE
DC
5C
62
ENDCHAR
STARTCHAR u6A59-ZH_CN
ENCODING 27225
SWIDTH 1000 0
DWIDTH 8 0
BBX 8 8 0 -1
BITMAP
00
7A
D4
62
DC
D4
48
7E
ENDCHAR
STARTCHAR u6B21-ZH_CN
ENCODING 27425
SWIDTH 1000 0
DWIDTH 8 0
BBX 8 8 0 -1
BITMAP
00
90
1E
2A
08
88
94
A2
ENDCHAR
STARTCHAR u6B27-ZH_CN
ENCODING 27431
SWIDTH 1000 0
DWIDTH 8 0
BBX 8 8 0 -1
BITMAP
00
E8
8E
D6
A4
D4
84
EA
ENDCHAR
STARTCHAR u6B62-ZH_CN
ENCODING 27490
SWIDTH 1000 0
DWIDTH 8 0
BBX 8 8 0 -1
BITMAP
00
10
10
5C
50
50
50
FE
ENDCHAR
STARTCHAR u6B63-ZH_CN
ENCODING 27491
SWIDTH 1000 0
DWIDTH 8 0
BBX 8 8 0 -1
BITMAP
00
FE
10
10
5C
50
50
FE
ENDCHAR
STARTCHAR u6B64-ZH_CN
ENCODING 27492
SWIDTH 1000 0
DWIDTH 8 0
BBX 8 8 0 -1
BITMAP
00
28
28
BA
AC
A8
BA
CE
ENDCHAR
STARTCHAR u6B65-ZH_CN
ENCODING 27493
SWIDTH 1000 0
DWIDTH 8 0
BBX 8 8 0 -1
BITMAP
00
10
5C
50
FE
54
98
70
ENDCHAR
STARTCHAR u6B7B-ZH_CN
ENCODING 27515
SWIDTH 1000 0
DWIDTH 8 0
BBX 8 8 0 -1
BITMAP
00
FE
48
6A
AC
68
4A
8E
ENDCHAR
STARTCHAR u6B8A-ZH_CN
ENCODING 27530
SWIDTH 1000 0
DWIDTH 8 0
BBX 8 8 0 -1
BITMAP
00
F8
5C
68
BE
68
5C
AA
ENDCHAR
STARTCHAR u6BB5-ZH_CN
ENCODING 27573
SWIDTH 1000 0
DWIDTH 8 0
BBX 8 8 0 -1
BITMAP
00
2E
4A
60
4E
6A
C4
5A
ENDCHAR
STARTCHAR u6BD4-ZH_CN
ENCODING 27604
SWIDTH 1000 0
DWIDTH 8 0
BBX 8 8 0 -1
BITMAP
00
90
90
F2
9C
90
F2
9E
ENDCHAR
STARTCHAR u6C34-ZH_CN
ENCODING 27700
SWIDTH 1000 0
DWIDTH 8 0
BBX 8 8 0 -1
BITMAP
00
10
12
F4
38
54
92
30
ENDCHAR
STARTCHAR u6C60-ZH_CN
ENCODING 27744
SWIDTH 1000 0
DWIDTH 8 0
BBX 8 8 0 -1
BITMAP
00
84
14
9E
36
94
92
9E
ENDCHAR
STARTCHAR u6CA1-ZH_CN
ENCODING 27809
SWIDTH 1000 0
DWIDTH 8 0
BBX 8 8 0 -1
BITMAP
00
9C
14
A6
1C
94
88
B6
ENDCHAR
STARTCHAR u6CB9-ZH_CN
ENCODING 27833
SWIDTH 1000 0
DWIDTH 8 0
BBX 8 8 0 -1
BITMAP
00
88
3E
AA
3E
AA
AA
BE
ENDCHAR
STARTCHAR u6CBF-ZH_CN
ENCODING 27839
SWIDTH 1000 0
DWIDTH 8 0
BBX 8 8 0 -1
BITMAP
00
9C
14
96
20
9C
94
9C
ENDCHAR
STARTCHAR u6CD5-ZH_CN
ENCODING 27861
SWIDTH 1000 0
DWIDTH 8 0
BBX 8 8 0 -1
BITMAP
00
88
1C
88
3E
88
94
BA
ENDCHAR
STARTCHAR u6CE2-ZH_CN
ENCODING 27874
SWIDTH 1000 0
DWIDTH 8 0
BBX 8 8 0 -1
BITMAP
00
88
3E
AA
3C
B4
C8
B6
ENDCHAR
STARTCHAR u6CE8-ZH_CN
ENCODING 27880
SWIDTH 1000 0
DWIDTH 8 0
BBX 8 8 0 -1
BITMAP
00
90
08
BE
08
9C
88
BE
ENDCHAR
STARTCHAR u6D1B-ZH_CN
ENCODING 27931
SWIDTH 1000 0
DWIDTH 8 0
BBX 8 8 0 -1
BITMAP
00
8C
14
88
36
9C
94
9C
ENDCHAR
STARTCHAR u6D32-ZH_CN
ENCODING 27954
SWIDTH 1000 0
DWIDTH 8 0
BBX 8 8 0 -1
BITMAP
00
AA
2A
FE
7E
AA
AA
CA
ENDCHAR
STARTCHAR u6D3B-ZH_CN
ENCODING 27963
SWIDTH 1000 0
DWIDTH 8 0
BBX 8 8 0 -1
BITMAP
00
84
18
BE
08
9C
94
9C
ENDCHAR
STARTCHAR u6D41-ZH_CN
ENCODING 27969
SWIDTH 1000 0
DWIDTH 8 0
BBX 8 8 0 -1
BITMAP
00
88
3E
94
3A
98
9A
AA
ENDCHAR
STARTCHAR u6D4B-ZH_CN
ENCODING 27979
SWIDTH 1000 0
DWIDTH 8 0
BBX 8 8 0 -1
BITMAP
00
BA
2E
BE
3E
BA
92
AA
ENDCHAR
STARTCHAR u6D88-ZH_CN
ENCODING 28040
SWIDTH 1000 0
DWIDTH 8 0
BBX 8 8 0 -1
BITMAP
00
AA
08
BE
22
BE
A2
A6
ENDCHAR
STARTCHAR u6DF7-ZH_CN
ENCODING 28151
SWIDTH 1000 0
DWIDTH 8 0
BBX 8 8 0 -1
BITMAP
00
BE
22
BE
24
B6
A4
B6
ENDCHAR
STARTCHAR u6DFB-ZH_CN
ENCODING 28155
SWIDTH 1000 0
DWIDTH 8 0
BBX 8 8 0 -1
BITMAP
00
9C
08
BE
14
A2
88
AA
ENDCHAR
STARTCHAR u6E05-ZH_CN
ENCODING 28165
SWIDTH 1000 0
DWIDTH 8 0
BBX 8 8 0 -1
BITMAP
00
88
1C
88
3E
94
9C
94
ENDCHAR
STARTCHAR u6E10-ZH_CN
ENCODING 28176
SWIDTH 1000 0
DWIDTH 8 0
BBX 8 8 0 -1
BITMAP
00
92
3C
A8
3E
9A
BA
92
ENDCHAR
STARTCHAR u6E29-ZH_CN
ENCODING 28201
SWIDTH 1000 0
DWIDTH 8 0
BBX 8 8 0 -1
BITMAP
00
BC
24
BC
00
BC
AC
FE
ENDCHAR
STARTCHAR u6E38-ZH_CN
ENCODING 28216
SWIDTH 1000 0
DWIDTH 8 0
BBX 8 8 0 -1
BITMAP
00
A8
7E
AE
32
D4
9E
B4
ENDCHAR
STARTCHAR u6E7E-ZH_CN
ENCODING 28286
SWIDTH 1000 0
DWIDTH 8 0
BBX 8 8 0 -1
BITMAP
00
88
3E
94
36
9C
9E
82
ENDCHAR
STARTCHAR u6E90-ZH_CN
ENCODING 28304
SWIDTH 1000 0
DWIDTH 8 0
BBX 8 8 0 -1
BITMAP
00
BE
24
AE
2E
A4
B6
CC
ENDCHAR
STARTCHAR u6ED1-ZH_CN
ENCODING 28369
SWIDTH 1000 0
DWIDTH 8 0
BBX 8 8 0 -1
BITMAP
00
9C
14
BE
22
9C
9C
94
ENDCHAR
STARTCHAR u6EDA-ZH_CN
ENCODING 28378
SWIDTH 1000 0
DWIDTH 8 0
BBX 8 8 0 -1
BITMAP
00
88
7E
94
2A
9C
B4
9A
ENDCHAR
STARTCHAR u6EDE-ZH_CN
ENCODING 28382
SWIDTH 1000 0
DWIDTH 8 0
BBX 8 8 0 -1
BITMAP
00
94
3E
94
3E
AA
9C
94
ENDCHAR
STARTCHAR u6EE1-ZH_CN
ENCODING 28385
SWIDTH 1000 0
DWIDTH 8 0
BBX 8 8 0 -1
BITMAP
00
94
3E
94
3E
AA
BE
AA
ENDCHAR
STARTCHAR u6EE4-ZH_CN
ENCODING 28388
SWIDTH 1000 0
DWIDTH 8 0
BBX 8 8 0 -1
BITMAP
00
88
0E
B8
2E
A0
BA
D6
ENDCHAR
STARTCHAR u6FC0-ZH_CN
ENCODING 28608
SWIDTH 1000 0
DWIDTH 8 0
BBX 8 8 0 -1
BITMAP
00
94
36
BA
7A
9A
AC
DA
ENDCHAR
STARTCHAR u706B-ZH_CN
ENCODING 28779
SWIDTH 1000 0
DWIDTH 8 0
BBX 8 8 0 -1
BITMAP
00
10
10
54
58
10
28
C6
ENDCHAR
STARTCHAR u706F-ZH_CN
ENCODING 28783
SWIDTH 1000 0
DWIDTH 8 0
BBX 8 8 0 -1
BITMAP
00
5E
44
E4
C4
44
64
8C
ENDCHAR
STARTCHAR u7075-ZH_CN
ENCODING 28789
SWIDTH 1000 0
DWIDTH 8 0
BBX 8 8 0 -1
BITMAP
00
7C
04
7C
10
54
28
C6
ENDCHAR
STARTCHAR u70B9-ZH_CN
ENCODING 28857
SWIDTH 1000 0
DWIDTH 8 0
BBX 8 8 0 -1
BITMAP
00
10
1C
10
7C
7C
00
AA
ENDCHAR
STARTCHAR u7126-ZH_CN
ENCODING 28966
SWIDTH 1000 0
DWIDTH 8 0
BBX 8 8 0 -1
BITMAP
00
28
3E
7C
A8
3E
00
AA
ENDCHAR
STARTCHAR u7136-ZH_CN
ENCODING 28982
SWIDTH 1000 0
DWIDTH 8 0
BBX 8 8 0 -1
BITMAP
00
74
5E
B4
24
CA
00
AA
ENDCHAR
STARTCHAR u7184-ZH_CN
ENCODING 29060
SWIDTH 1000 0
DWIDTH 8 0
BBX 8 8 0 -1
BITMAP
00
48
5C
DC
DC
40
72
AE
ENDCHAR
STARTCHAR u722C-ZH_CN
ENCODING 29228
SWIDTH 1000 0
DWIDTH 8 0
BBX 8 8 0 -1
BITMAP
00
10
66
76
74
76
70
AE
ENDCHAR
STARTCHAR u7247-ZH_CN
ENCODING 29255
SWIDTH 1000 0
DWIDTH 8 0
BBX 8 8 0 -1
BITMAP
00
48
48
7E
40
7C
44
84
ENDCHAR
STARTCHAR u7248-ZH_CN
ENCODING 29256
SWIDTH 1000 0
DWIDTH 8 0
BBX 8 8 0 -1
BITMAP
00
A2
AC
E8
8E
EA
B4
AA
ENDCHAR
STARTCHAR u7259-ZH_CN
ENCODING 29273
SWIDTH 1000 0
DWIDTH 8 0
BBX 8 8 0 -1
BITMAP
00
FC
48
88
FE
28
C8
18
ENDCHAR
STARTCHAR u7279-ZH_CN
ENCODING 29305
SWIDTH 1000 0
DWIDTH 8 0
BBX 8 8 0 -1
BITMAP
00
C8
DC
C8
7E
C4
7E
54
ENDCHAR
STARTCHAR u72B6-ZH_CN
ENCODING 29366
SWIDTH 1000 0
DWIDTH 8 0
BBX 8 8 0 -1
BITMAP
00
4A
48
FE
48
C8
54
62
ENDCHAR
STARTCHAR u7387-ZH_CN
ENCODING 29575
SWIDTH 1000 0
DWIDTH 8 0
BBX 8 8 0 -1
BITMAP
00
10
FE
54
28
74
FE
10
ENDCHAR
STARTCHAR u73AF-ZH_CN
ENCODING 29615
SWIDTH 1000 0
DWIDTH 8 0
BBX 8 8 0 -1
BITMAP
00
FE
48
48
DC
6A
C8
08
ENDCHAR
STARTCHAR u73B0-ZH_CN
ENCODING 29616
SWIDTH 1000 0
DWIDTH 8 0
BBX 8 8 0 -1
BITMAP
00
FE
52
5A
FA
5A
EC
16
ENDCHAR
STARTCHAR u73ED-ZH_CN
ENCODING 29677
SWIDTH 1000 0
DWIDTH 8 0
BBX 8 8 0 -1
BITMAP
00
E6
4C
6C
EE
4C
D4
2E
ENDCHAR
STARTCHAR u7406-ZH_CN
ENCODING 29702
SWIDTH 1000 0
DWIDTH 8 0
BBX 8 8 0 -1
BITMAP
00
FE
6A
7E
EA
7E
C8
3E
ENDCHAR
STARTCHAR u745E-ZH_CN
ENCODING 29790
SWIDTH 1000 0
DWIDTH 8 0
BBX 8 8 0 -1
BITMAP
00
EA
7E
40
FE
50
FE
2A
ENDCHAR
STARTCHAR u751F-ZH_CN
ENCODING 29983
SWIDTH 1000 0
DWIDTH 8 0
BBX 8 8 0 -1
BITMAP
00
50
7E
90
10
7C
10
FE
ENDCHAR
STARTCHAR u7528-ZH_CN
ENCODING 29992
SWIDTH 1000 0
DWIDTH 8 0
BBX 8 8 0 -1
BITMAP
00
7E
52
7E
52
7E
52
96
ENDCHAR
STARTCHAR u7535-ZH_CN
ENCODING 30005
SWIDTH 1000 0
DWIDTH 8 0
BBX 8 8 0 -1
BITMAP
00
10
7C
54
7C
7C
12
0E
ENDCHAR
STARTCHAR u754C-ZH_CN
ENCODING 30028
SWIDTH 1000 0
DWIDTH 8 0
BBX 8 8 0 -1
BITMAP
00
7C
54
7C
54
7C
AA
48
ENDCHAR
STARTCHAR u7565-ZH_CN
ENCODING 30053
SWIDTH 1000 0
DWIDTH 8 0
BBX 8 8 0 -1
BITMAP
00
06
EA
E4
FA
EE
EA
0E
ENDCHAR
STARTCHAR u767D-ZH_CN
ENCODING 30333
SWIDTH 1000 0
DWIDTH 8 0
BBX 8 8 0 -1
BITMAP
00
10
7E
42
7E
42
42
7E
ENDCHAR
STARTCHAR u7684-ZH_CN
ENCODING 30340
SWIDTH 1000 0
DWIDTH 8 0
BBX 8 8 0 -1
BITMAP
00
48
EE
B2
EA
A6
E2
06
ENDCHAR
STARTCHAR u76CA-ZH_CN
ENCODING 30410
SWIDTH 1000 0
DWIDTH 8 0
BBX 8 8 0 -1
BITMAP
00
44
FE
44
82
7C
54
FE
ENDCHAR
STARTCHAR u76D1-ZH_CN
ENCODING 30417
SWIDTH 1000 0
DWIDTH 8 0
BBX 8 8 0 -1
BITMAP
00
28
AE
B4
22
7C
54
FE
ENDCHAR
STARTCHAR u76D6-ZH_CN
ENCODING 30422
SWIDTH 1000 0
DWIDTH 8 0
BBX 8 8 0 -1
BITMAP
00
44
FE
10
FE
7C
54
FE
ENDCHAR
STARTCHAR u76D8-ZH_CN
ENCODING 30424
SWIDTH 1000 0
DWIDTH 8 0
BBX 8 8 0 -1
BITMAP
00
7C
54
FE
54
BC
34
FE
ENDCHAR
STARTCHAR u76EE-ZH_CN
ENCODING 30446
SWIDTH 1000 0
DWIDTH 8 0
BBX 8 8 0 -1
BITMAP
00
7E
42
7E
42
7E
42
7E
ENDCHAR
STARTCHAR u76F4-ZH_CN
ENCODING 30452
SWIDTH 1000 0
DWIDTH 8 0
BBX 8 8 0 -1
BITMAP
00
10
FE
10
7C
44
7C
FE
ENDCHAR
STARTCHAR u76F8-ZH_CN
ENCODING 30456
SWIDTH 1000 0
DWIDTH 8 0
BBX 8 8 0 -1
BITMAP
00
2E
FA
2E
7A
6E
AA
2E
ENDCHAR
STARTCHAR u770B-ZH_CN
ENCODING 30475
SWIDTH 1000 0
DWIDTH 8 0
BBX 8 8 0 -1
BITMAP
00
0C
70
3C
FE
7C
A4
3C
ENDCHAR
STARTCHAR u771F-ZH_CN
ENCODING 30495
SWIDTH 1000 0
DWIDTH 8 0
BBX 8 8 0 -1
BITMAP
00
10
FE
38
38
FE
00
C6
ENDCHAR
STARTCHAR u77AC-ZH_CN
ENCODING 30636
SWIDTH 1000 0
DWIDTH 8 0
BBX 8 8 0 -1
BITMAP
00
FE
B4
FE
A2
F4
BE
E4
ENDCHAR
STARTCHAR u77E5-ZH_CN
ENCODING 30693
SWIDTH 1000 0
DWIDTH 8 0
BBX 8 8 0 -1
BITMAP
00
40
7E
AA
7A
2A
5A
8E
ENDCHAR
STARTCHAR u77ED-ZH_CN
ENCODING 30701
SWIDTH 1000 0
DWIDTH 8 0
BBX 8 8 0 -1
BITMAP
00
9E
E0
5E
F2
5E
6C
9E
ENDCHAR
STARTCHAR u7801-ZH_CN
ENCODING 30721
SWIDTH 1000 0
DWIDTH 8 0
BBX 8 8 0 -1
BITMAP
00
FC
44
54
9E
62
7A
06
ENDCHAR
STARTCHAR u786C-ZH_CN
ENCODING 30828
SWIDTH 1000 0
DWIDTH 8 0
BBX 8 8 0 -1
BITMAP
00
FE
4E
4E
84
6C
64
1A
ENDCHAR
STARTCHAR u786E-ZH_CN
ENCODING 30830
SWIDTH 1000 0
DWIDTH 8 0
BBX 8 8 0 -1
BITMAP
00
EC
54
5E
9A
7E
7A
0A
ENDCHAR
STARTCHAR u793A-ZH_CN
ENCODING 31034
SWIDTH 1000 0
DWIDTH 8 0
BBX 8 8 0 -1
BITMAP
00
7C
00
FE
10
54
92
30
ENDCHAR
STARTCHAR u7981-ZH_CN
ENCODING 31105
SWIDTH 1000 0
DWIDTH 8 0
BBX 8 8 0 -1
BITMAP
00
24
FE
6C
B6
FE
54
B2
ENDCHAR
STARTCHAR u79BB-ZH_CN
ENCODING 31163
SWIDTH 1000 0
DWIDTH 8 0
BBX 8 8 0 -1
BITMAP
00
10
FE
54
6C
FE
AA
B6
ENDCHAR
STARTCHAR u79D2-ZH_CN
ENCODING 31186
SWIDTH 1000 0
DWIDTH 8 0
BBX 8 8 0 -1
BITMAP
00
C8
5C
DA
68
CA
C4
58
ENDCHAR
STARTCHAR u79EF-ZH_CN
ENCODING 31215
SWIDTH 1000 0
DWIDTH 8 0
BBX 8 8 0 -1
BITMAP
00
FE
52
F2
5E
E0
D4
62
ENDCHAR
STARTCHAR u79F0-ZH_CN
ENCODING 31216
SWIDTH 1000 0
DWIDTH 8 0
BBX 8 8 0 -1
BITMAP
00
D0
5E
EA
5C
DA
EA
58
ENDCHAR
STARTCHAR u79FB-ZH_CN
ENCODING 31227
SWIDTH 1000 0
DWIDTH 8 0
BBX 8 8 0 -1
BITMAP
00
EC
54
E8
56
EA
C4
58
ENDCHAR
STARTCHAR u7A0B-ZH_CN
ENCODING 31243
SWIDTH 1000 0
DWIDTH 8 0
BBX 8 8 0 -1
BITMAP
00
DC
54
FE
48
DC
C8
7E
ENDCHAR
STARTCHAR u7A33-ZH_CN
ENCODING 31283
SWIDTH 1000 0
DWIDTH 8 0
BBX 8 8 0 -1
BITMAP
00
D8
68
DC
44
DC
F2
6E
ENDCHAR
STARTCHAR u7A7A-ZH_CN
ENCODING 31354
SWIDTH 1000 0
DWIDTH 8 0
BBX 8 8 0 -1
BITMAP
00
10
FE
AA
44
38
10
FE
ENDCHAR
STARTCHAR u7A81-ZH_CN
ENCODING 31361
SWIDTH 1000 0
DWIDTH 8 0
BBX 8 8 0 -1
BITMAP
00
10
FE
AA
54
FE
10
EE
ENDCHAR
STARTCHAR u7A97-ZH_CN
ENCODING 31383
SWIDTH 1000 0
DWIDTH 8 0
BBX 8 8 0 -1
BITMAP
00
10
FE
B6
7C
5C
6C
7C
ENDCHAR
STARTCHAR u7ADE-ZH_CN
ENCODING 31454
SWIDTH 1000 0
DWIDTH 8 0
BBX 8 8 0 -1
BITMAP
00
10
7C
28
FE
28
3A
CE
ENDCHAR
STARTCHAR u7AEF-ZH_CN
ENCODING 31471
SWIDTH 1000 0
DWIDTH 8 0
BBX 8 8 0 -1
BITMAP
00
6A
FE
20
BE
50
FE
2A
ENDCHAR
STARTCHAR u7B49-ZH_CN
ENCODING 31561
SWIDTH 1000 0
DWIDTH 8 0
BBX 8 8 0 -1
BITMAP
00
48
6E
B4
18
FE
28
18
ENDCHAR
STARTCHAR u7B7E-ZH_CN
ENCODING 31614
SWIDTH 1000 0
DWIDTH 8 0
BBX 8 8 0 -1
BITMAP
00
48
6E
B4
EE
54
28
FE
ENDCHAR
STARTCHAR u7B97-ZH_CN
ENCODING 31639
SWIDTH 1000 0
DWIDTH 8 0
BBX 8 8 0 -1
BITMAP
00
48
6E
B4
7C
44
FE
48
ENDCHAR
STARTCHAR u7BA1-ZH_CN
ENCODING 31649
SWIDTH 1000 0
DWIDTH 8 0
BBX 8 8 0 -1
BITMAP
00
48
6E
B4
FE
B2
3C
3C
ENDCHAR
STARTCHAR u7C7B-ZH_CN
ENCODING 31867
SWIDTH 1000 0
DWIDTH 8 0
BBX 8 8 0 -1
BITMAP
00
54
FE
38
54
FE
10
EE
ENDCHAR
STARTCHAR u7C89-ZH_CN
ENCODING 31881
SWIDTH 1000 0
DWIDTH 8 0
BBX 8 8 0 -1
BITMAP
00
B4
54
E2
5C
D4
D4
6C
ENDCHAR
STARTCHAR u7C98-ZH_CN
ENCODING 31896
SWIDTH 1000 0
DWIDTH 8 0
BBX 8 8 0 -1
BITMAP
00
A8
48
EE
48
FE
D2
5E
ENDCHAR
STARTCHAR u7CBE-ZH_CN
ENCODING 31934
SWIDTH 1000 0
DWIDTH 8 0
BBX 8 8 0 -1
BITMAP
00
A8
5C
C8
7E
D4
DC
54
ENDCHAR
STARTCHAR u7CFB-ZH_CN
ENCODING 31995
SWIDTH 1000 0
DWIDTH 8 0
BBX 8 8 0 -1
BITMAP
00
7C
28
70
24
FA
10
B2
ENDCHAR
STARTCHAR u7D27-ZH_CN
ENCODING 32039
SWIDTH 1000 0
DWIDTH 8 0
BBX 8 8 0 -1
BITMAP
00
2E
AA
A4
2A
FE
10
B2
ENDCHAR
STARTCHAR u7D2F-ZH_CN
ENCODING 32047
SWIDTH 1000 0
DWIDTH 8 0
BBX 8 8 0 -1
BITMAP
00
7C
54
7C
24
FA
10
B2
ENDCHAR
STARTCHAR u7EA2-ZH_CN
ENCODING 32418
SWIDTH 1000 0
DWIDTH 8 0
BBX 8 8 0 -1
BITMAP
00
40
9E
44
84
C4
04
DE
ENDCHAR
STARTCHAR u7EA7-ZH_CN
ENCODING 32423
SWIDTH 1000 0
DWIDTH 8 0
BBX 8 8 0 -1
BITMAP
00
7C
94
56
92
DA
24
DA
ENDCHAR
STARTCHAR u7EB5-ZH_CN
ENCODING 32437
SWIDTH 1000 0
DWIDTH 8 0
BBX 8 8 0 -1
BITMAP
00
54
94
54
9C
E4
2A
EA
ENDCHAR
STARTCHAR u7EBD-ZH_CN
ENCODING 32445
SWIDTH 1000 0
DWIDTH 8 0
BBX 8 8 0 -1
BITMAP
00
7C
94
54
BC
D4
14
DE
ENDCHAR
STARTCHAR u7EBF-ZH_CN
ENCODING 32447
SWIDTH 1000 0
DWIDTH 8 0
BBX 8 8 0 -1
BITMAP
00
4A
BE
48
BC
CA
04
DA
ENDCHAR
STARTCHAR u7EC3-ZH_CN
ENCODING 32451
SWIDTH 1000 0
DWIDTH 8 0
BBX 8 8 0 -1
BITMAP
00
48
BE
58
BE
C8
2A
D8
ENDCHAR
STARTCHAR u7EC4-ZH_CN
ENCODING 32452
SWIDTH 1000 0
DWIDTH 8 0
BBX 8 8 0 -1
BITMAP
00
5C
94
5C
94
DC
14
DE
ENDCHAR
STARTCHAR u7EC6-ZH_CN
ENCODING 32454
SWIDTH 1000 0
DWIDTH 8 0
BBX 8 8 0 -1
BITMAP
00
5E
96
56
9E
D6
16
DE
ENDCHAR
STARTCHAR u7EC8-ZH_CN
ENCODING 32456
SWIDTH 1000 0
DWIDTH 8 0
BBX 8 8 0 -1
BITMAP
00
4C
94
48
B6
C8
00
CC
ENDCHAR
STARTCHAR u7ECF-ZH_CN
ENCODING 32463
SWIDTH 1000 0
DWIDTH 8 0
BBX 8 8 0 -1
BITMAP
00
5C
84
48
B6
DC
08
DE
ENDCHAR
STARTCHAR u7ED1-ZH_CN
ENCODING 32465
SWIDTH 1000 0
DWIDTH 8 0
BBX 8 8 0 -1
BITMAP
00
56
BE
54
BE
D6
3C
D4
ENDCHAR
STARTCHAR u7EDD-ZH_CN
ENCODING 32477
SWIDTH 1000 0
DWIDTH 8 0
BBX 8 8 0 -1
BITMAP
00
4C
94
5E
9A
DE
10
DE
ENDCHAR
STARTCHAR u7EDF-ZH_CN
ENCODING 32479
SWIDTH 1000 0
DWIDTH 8 0
BBX 8 8 0 -1
BITMAP
00
48
BE
54
BA
D4
14
E6
ENDCHAR
STARTCHAR u7EED-ZH_CN
ENCODING 32493
SWIDTH 1000 0
DWIDTH 8 0
BBX 8 8 0 -1
BITMAP
00
5C
88
7E
96
FE
08
D2
ENDCHAR
STARTCHAR u7EFF-ZH_CN
ENCODING 32511
SWIDTH 1000 0
DWIDTH 8 0
BBX 8 8 0 -1
BITMAP
00
5C
84
7E
88
EA
1C
EA
ENDCHAR
STARTCHAR u7F13-ZH_CN
ENCODING 32531
SWIDTH 1000 0
DWIDTH 8 0
BBX 8 8 0 -1
BITMAP
00
46
B8
6A
9E
CA
14
EA
ENDCHAR
STARTCHAR u7F16-ZH_CN
ENCODING 32534
SWIDTH 1000 0
DWIDTH 8 0
BBX 8 8 0 -1
BITMAP
00
48
9C
5C
90
DE
1E
EA
ENDCHAR
STARTCHAR u7F29-ZH_CN
ENCODING 32553
SWIDTH 1000 0
DWIDTH 8 0
BBX 8 8 0 -1
BITMAP
00
48
BE
62
9E
F4
16
D6
ENDCHAR
STARTCHAR u7F6E-ZH_CN
ENCODING 32622
SWIDTH 1000 0
DWIDTH 8 0
BBX 8 8 0 -1
BITMAP
00
FE
AA
FE
44
7C
44
FE
ENDCHAR
STARTCHAR u7F8E
ENCODING 32654
SWIDTH 1000 0
DWIDTH 8 0
BBX 8 8 0 -1
BITMAP
00
28
FE
7C
10
FE
28
C6
ENDCHAR
STARTCHAR u7FFB-ZH_CN
ENCODING 32763
SWIDTH 1000 0
DWIDTH 8 0
BBX 8 8 0 -1
BITMAP
00
FE
6A
FE
6A
BE
7E
6A
ENDCHAR
STARTCHAR u7FFC-ZH_CN
ENCODING 32764
SWIDTH 1000 0
DWIDTH 8 0
BBX 8 8 0 -1
BITMAP
00
FE
5A
36
58
FE
00
C6
ENDCHAR
STARTCHAR u8005-ZH_CN
ENCODING 32773
SWIDTH 1000 0
DWIDTH 8 0
BBX 8 8 0 -1
BITMAP
00
12
7C
18
FE
20
DC
1C
ENDCHAR
STARTCHAR u8017-ZH_CN
ENCODING 32791
SWIDTH 1000 0
DWIDTH 8 0
BBX 8 8 0 -1
BITMAP
00
44
F8
4E
F8
4E
F8
4E
ENDCHAR
STARTCHAR u8026-ZH_CN
ENCODING 32806
SWIDTH 1000 0
DWIDTH 8 0
BBX 8 8 0 -1
BITMAP
00
5C
DC
48
FE
6A
EE
7A
ENDCHAR
STARTCHAR u8054-ZH_CN
ENCODING 32852
SWIDTH 1000 0
DWIDTH 8 0
BBX 8 8 0 -1
BITMAP
00
EA
60
6E
64
6E
E4
3A
ENDCHAR
STARTCHAR u80CC-ZH_CN
ENCODING 32972
SWIDTH 1000 0
DWIDTH 8 0
BBX 8 8 0 -1
BITMAP
00
28
EE
28
FE
44
7C
44
ENDCHAR
STARTCHAR u80FD-ZH_CN
ENCODING 33021
SWIDTH 1000 0
DWIDTH 8 0
BBX 8 8 0 -1
BITMAP
00
24
56
F4
76
56
74
56
ENDCHAR
STARTCHAR u8109-ZH_CN
ENCODING 33033
SWIDTH 1000 0
DWIDTH 8 0
BBX 8 8 0 -1
BITMAP
00
EC
A0
EC
BE
EC
B6
AC
ENDCHAR
STARTCHAR u811A-ZH_CN
ENCODING 33050
SWIDTH 1000 0
DWIDTH 8 0
BBX 8 8 0 -1
BITMAP
00
EE
BE
EE
BE
EE
B4
BC
ENDCHAR
STARTCHAR u81EA-ZH_CN
ENCODING 33258
SWIDTH 1000 0
DWIDTH 8 0
BBX 8 8 0 -1
BITMAP
00
10
7E
42
7A
5E
42
7E
ENDCHAR
STARTCHAR u81F3-ZH_CN
ENCODING 33267
SWIDTH 1000 0
DWIDTH 8 0
BBX 8 8 0 -1
BITMAP
00
FE
28
74
10
7C
10
FE
ENDCHAR
STARTCHAR u822A-ZH_CN
ENCODING 33322
SWIDTH 1000 0
DWIDTH 8 0
BBX 8 8 0 -1
BITMAP
00
48
FE
A0
BC
F4
B4
A6
ENDCHAR
STARTCHAR u8235-ZH_CN
ENCODING 33333
SWIDTH 1000 0
DWIDTH 8 0
BBX 8 8 0 -1
BITMAP
00
44
FE
B2
A8
EE
A8
AE
ENDCHAR
STARTCHAR u8272-ZH_CN
ENCODING 33394
SWIDTH 1000 0
DWIDTH 8 0
BBX 8 8 0 -1
BITMAP
00
38
C8
7C
54
7C
42
3E
ENDCHAR
STARTCHAR u8282-ZH_CN
ENCODING 33410
SWIDTH 1000 0
DWIDTH 8 0
BBX 8 8 0 -1
BITMAP
00
28
FE
28
FE
12
16
10
ENDCHAR
STARTCHAR u82AC-ZH_CN
ENCODING 33452
SWIDTH 1000 0
DWIDTH 8 0
BBX 8 8 0 -1
BITMAP
00
28
FE
28
44
BE
14
6C
ENDCHAR
STARTCHAR u82F1-ZH_CN
ENCODING 33521
SWIDTH 1000 0
DWIDTH 8 0
BBX 8 8 0 -1
BITMAP
00
28
FE
28
54
FE
10
EE
ENDCHAR
STARTCHAR u8303-ZH_CN
ENCODING 33539
SWIDTH 1000 0
DWIDTH 8 0
BBX 8 8 0 -1
BITMAP
00
28
FE
BC
24
AC
22
9E
ENDCHAR
STARTCHAR u8377-ZH_CN
ENCODING 33655
SWIDTH 1000 0
DWIDTH 8 0
BBX 8 8 0 -1
BITMAP
00
28
FE
28
5E
C2
5A
5A
ENDCHAR
STARTCHAR u83DC-ZH_CN
ENCODING 33756
SWIDTH 1000 0
DWIDTH 8 0
BBX 8 8 0 -1
BITMAP
00
28
FE
54
08
FE
38
D6
ENDCHAR
STARTCHAR u8404-ZH_CN
ENCODING 33796
SWIDTH 1000 0
DWIDTH 8 0
BBX 8 8 0 -1
BITMAP
00
28
FE
7E
52
BA
56
7E
ENDCHAR
STARTCHAR u843D-ZH_CN
ENCODING 33853
SWIDTH 1000 0
DWIDTH 8 0
BBX 8 8 0 -1
BITMAP
00
28
FE
8C
34
88
36
9C
ENDCHAR
STARTCHAR u8461-ZH_CN
ENCODING 33889
SWIDTH 1000 0
DWIDTH 8 0
BBX 8 8 0 -1
BITMAP
00
28
FE
7E
92
7A
7A
5A
ENDCHAR
STARTCHAR u84DD-ZH_CN
ENCODING 34013
SWIDTH 1000 0
DWIDTH 8 0
BBX 8 8 0 -1
BITMAP
00
28
FE
28
AE
A4
38
FE
ENDCHAR
STARTCHAR u85CF-ZH_CN
ENCODING 34255
SWIDTH 1000 0
DWIDTH 8 0
BBX 8 8 0 -1
BITMAP
00
28
FE
04
BE
FC
74
DA
ENDCHAR
STARTCHAR u8702-ZH_CN
ENCODING 34562
SWIDTH 1000 0
DWIDTH 8 0
BBX 8 8 0 -1
BITMAP
00
4C
F4
A8
F6
48
7E
C8
ENDCHAR
STARTCHAR u87BA-ZH_CN
ENCODING 34746
SWIDTH 1000 0
DWIDTH 8 0
BBX 8 8 0 -1
BITMAP
00
7E
EA
BE
D0
7E
48
EA
ENDCHAR
STARTCHAR u884C-ZH_CN
ENCODING 34892
SWIDTH 1000 0
DWIDTH 8 0
BBX 8 8 0 -1
BITMAP
00
5C
80
7E
C4
44
44
4C
ENDCHAR
STARTCHAR u8865-ZH_CN
ENCODING 34917
SWIDTH 1000 0
DWIDTH 8 0
BBX 8 8 0 -1
BITMAP
00
48
E8
28
4C
EA
68
48
ENDCHAR
STARTCHAR u8868-ZH_CN
ENCODING 34920
SWIDTH 1000 0
DWIDTH 8 0
BBX 8 8 0 -1
BITMAP
00
10
7C
10
FC
2A
E4
32
ENDCHAR
STARTCHAR u8870-ZH_CN
ENCODING 34928
SWIDTH 1000 0
DWIDTH 8 0
BBX 8 8 0 -1
BITMAP
00
10
FE
38
EE
38
E8
36
ENDCHAR
STARTCHAR u88AB-ZH_CN
ENCODING 34987
SWIDTH 1000 0
DWIDTH 8 0
BBX 8 8 0 -1
BITMAP
00
44
FE
36
5E
FA
74
5A
ENDCHAR
STARTCHAR u88C5-ZH_CN
ENCODING 35013
SWIDTH 1000 0
DWIDTH 8 0
BBX 8 8 0 -1
BITMAP
00
48
FE
48
DC
FE
68
B6
ENDCHAR
STARTCHAR u897F-ZH_CN
ENCODING 35199
SWIDTH 1000 0
DWIDTH 8 0
BBX 8 8 0 -1
BITMAP
00
FE
28
FE
AA
CE
82
FE
ENDCHAR
STARTCHAR u8981-ZH_CN
ENCODING 35201
SWIDTH 1000 0
DWIDTH 8 0
BBX 8 8 0 -1
BITMAP
00
FE
54
7C
10
FE
28
F6
ENDCHAR
STARTCHAR u8986-ZH_CN
ENCODING 35206
SWIDTH 1000 0
DWIDTH 8 0
BBX 8 8 0 -1
BITMAP
00
FE
54
7C
8C
54
C8
76
ENDCHAR
STARTCHAR u89C4-ZH_CN
ENCODING 35268
SWIDTH 1000 0
DWIDTH 8 0
BBX 8 8 0 -1
BITMAP
00
5E
F2
5A
FA
5A
6C
96
ENDCHAR
STARTCHAR u89C6-ZH_CN
ENCODING 35270
SWIDTH 1000 0
DWIDTH 8 0
BBX 8 8 0 -1
BITMAP
00
5E
F2
3A
5A
FA
4C
56
ENDCHAR
STARTCHAR u89C8-ZH_CN
ENCODING 35272
SWIDTH 1000 0
DWIDTH 8 0
BBX 8 8 0 -1
BITMAP
00
28
AE
B4
7C
44
12
EE
ENDCHAR
STARTCHAR u89D2-ZH_CN
ENCODING 35282
SWIDTH 1000 0
DWIDTH 8 0
BBX 8 8 0 -1
BITMAP
00
38
C8
7E
52
7E
52
96
ENDCHAR
STARTCHAR u89E3-ZH_CN
ENCODING 35299
SWIDTH 1000 0
DWIDTH 8 0
BBX 8 8 0 -1
BITMAP
00
6E
A6
7A
7E
74
5E
B4
ENDCHAR
STARTCHAR u89E6-ZH_CN
ENCODING 35302
SWIDTH 1000 0
DWIDTH 8 0
BBX 8 8 0 -1
BITMAP
00
68
BE
6A
7E
68
6A
BE
ENDCHAR
STARTCHAR u8A00-ZH_CN
ENCODING 35328
SWIDTH 1000 0
DWIDTH 8 0
BBX 8 8 0 -1
BITMAP
00
10
FE
00
38
00
7C
7C
ENDCHAR
STARTCHAR u8B66-ZH_CN
ENCODING 35686
SWIDTH 1000 0
DWIDTH 8 0
BBX 8 8 0 -1
BITMAP
00
56
FA
74
9A
30
FE
38
ENDCHAR
STARTCHAR u8BA1-ZH_CN
ENCODING 35745
SWIDTH 1000 0
DWIDTH 8 0
BBX 8 8 0 -1
BITMAP
00
44
04
DE
44
44
64
44
ENDCHAR
STARTCHAR u8BA4-ZH_CN
ENCODING 35748
SWIDTH 1000 0
DWIDTH 8 0
BBX 8 8 0 -1
BITMAP
00
44
04
C4
44
44
6A
52
ENDCHAR
STARTCHAR u8BAE-ZH_CN
ENCODING 35758
SWIDTH 1000 0
DWIDTH 8 0
BBX 8 8 0 -1
BITMAP
00
48
0A
C2
54
54
68
56
ENDCHAR
STARTCHAR u8BB0-ZH_CN
ENCODING 35760
SWIDTH 1000 0
DWIDTH 8 0
BBX 8 8 0 -1
BITMAP
00
5E
02
C2
5E
50
72
5E
ENDCHAR
STARTCHAR u8BB8-ZH_CN
ENCODING 35768
SWIDTH 1000 0
DWIDTH 8 0
BBX 8 8 0 -1
BITMAP
00
50
1C
E8
48
7E
48
68
ENDCHAR
STARTCHAR u8BBE-ZH_CN
ENCODING 35774
SWIDTH 1000 0
DWIDTH 8 0
BBX 8 8 0 -1
BITMAP
00
5C
14
E6
5C
54
48
76
ENDCHAR
STARTCHAR u8BBF-ZH_CN
ENCODING 35775
SWIDTH 1000 0
DWIDTH 8 0
BBX 8 8 0 -1
BITMAP
00
48
3E
D0
5E
52
52
66
ENDCHAR
STARTCHAR u8BC1-ZH_CN
ENCODING 35777
SWIDTH 1000 0
DWIDTH 8 0
BBX 8 8 0 -1
BITMAP
00
5E
04
C4
56
54
54
7E
ENDCHAR
STARTCHAR u8BD5-ZH_CN
ENCODING 35797
SWIDTH 1000 0
DWIDTH 8 0
BBX 8 8 0 -1
BITMAP
00
4A
08
FE
44
7C
54
7A
ENDCHAR
STARTCHAR u8BDD-ZH_CN
ENCODING 35805
SWIDTH 1000 0
DWIDTH 8 0
BBX 8 8 0 -1
BITMAP
00
44
18
FE
48
5C
74
5C
ENDCHAR
STARTCHAR u8BE2-ZH_CN
ENCODING 35810
SWIDTH 1000 0
DWIDTH 8 0
BBX 8 8 0 -1
BITMAP
00
50
1E
F6
5E
56
5E
62
ENDCHAR
STARTCHAR u8BE6-ZH_CN
ENCODING 35814
SWIDTH 1000 0
DWIDTH 8 0
BBX 8 8 0 -1
BITMAP
00
54
3E
C8
5C
48
7E
48
ENDCHAR
STARTCHAR u8BED-ZH_CN
ENCODING 35821
SWIDTH 1000 0
DWIDTH 8 0
BBX 8 8 0 -1
BITMAP
00
5C
08
FC
54
7E
54
5C
ENDCHAR
STARTCHAR u8BEF-ZH_CN
ENCODING 35823
SWIDTH 1000 0
DWIDTH 8 0
BBX 8 8 0 -1
BITMAP
00
4E
0A
DE
44
5E
64
5A
ENDCHAR
STARTCHAR u8BF4-ZH_CN
ENCODING 35828
SWIDTH 1000 0
DWIDTH 8 0
BBX 8 8 0 -1
BITMAP
00
54
3E
E2
7E
54
54
66
ENDCHAR
STARTCHAR u8BF7-ZH_CN
ENCODING 35831
SWIDTH 1000 0
DWIDTH 8 0
BBX 8 8 0 -1
BITMAP
00
48
1C
C8
7E
54
7C
54
ENDCHAR
STARTCHAR u8BFB-ZH_CN
ENCODING 35835
SWIDTH 1000 0
DWIDTH 8 0
BBX 8 8 0 -1
BITMAP
00
5C
08
FE
56
7E
48
72
ENDCHAR
STARTCHAR u8C03-ZH_CN
ENCODING 35843
SWIDTH 1000 0
DWIDTH 8 0
BBX 8 8 0 -1
BITMAP
00
BE
2A
FE
6A
76
7E
22
ENDCHAR
STARTCHAR u8C31-ZH_CN
ENCODING 35889
SWIDTH 1000 0
DWIDTH 8 0
BBX 8 8 0 -1
BITMAP
00
54
3E
D4
76
54
7E
5C
ENDCHAR
STARTCHAR u8D1F-ZH_CN
ENCODING 36127
SWIDTH 1000 0
DWIDTH 8 0
BBX 8 8 0 -1
BITMAP
00
38
C8
7C
44
54
10
E6
ENDCHAR
STARTCHAR u8D25-ZH_CN
ENCODING 36133
SWIDTH 1000 0
DWIDTH 8 0
BBX 8 8 0 -1
BITMAP
00
E8
AE
FA
EA
EA
44
AA
ENDCHAR
STARTCHAR u8D34-ZH_CN
ENCODING 36148
SWIDTH 1000 0
DWIDTH 8 0
BBX 8 8 0 -1
BITMAP
00
E8
A8
EE
E8
FE
52
BE
ENDCHAR
STARTCHAR u8D77-ZH_CN
ENCODING 36215
SWIDTH 1000 0
DWIDTH 8 0
BBX 8 8 0 -1
BITMAP
00
2E
F2
2E
F8
6E
60
9E
ENDCHAR
STARTCHAR u8D85-ZH_CN
ENCODING 36229
SWIDTH 1000 0
DWIDTH 8 0
BBX 8 8 0 -1
BITMAP
00
2E
F6
2A
F0
6E
6A
9E
ENDCHAR
STARTCHAR u8DB3-ZH_CN
ENCODING 36275
SWIDTH 1000 0
DWIDTH 8 0
BBX 8 8 0 -1
BITMAP
00
7C
44
7C
10
5C
50
BE
ENDCHAR
STARTCHAR u8DDD-ZH_CN
ENCODING 36317
SWIDTH 1000 0
DWIDTH 8 0
BBX 8 8 0 -1
BITMAP
00
FE
B0
DE
72
DE
F0
DE
ENDCHAR
STARTCHAR u8DDF-ZH_CN
ENCODING 36319
SWIDTH 1000 0
DWIDTH 8 0
BBX 8 8 0 -1
BITMAP
00
FE
B2
DE
72
DE
F4
DA
ENDCHAR
STARTCHAR u8DEF-ZH_CN
ENCODING 36335
SWIDTH 1000 0
DWIDTH 8 0
BBX 8 8 0 -1
BITMAP
00
E6
AA
E4
5A
EE
CA
EE
ENDCHAR
STARTCHAR u8DF3-ZH_CN
ENCODING 36339
SWIDTH 1000 0
DWIDTH 8 0
BBX 8 8 0 -1
BITMAP
00
F4
B6
F4
56
F4
D4
E6
ENDCHAR
STARTCHAR u8E2A-ZH_CN
ENCODING 36394
SWIDTH 1000 0
DWIDTH 8 0
BBX 8 8 0 -1
BITMAP
00
C8
BE
EE
40
FE
C8
EA
ENDCHAR
STARTCHAR u8EAB-ZH_CN
ENCODING 36523
SWIDTH 1000 0
DWIDTH 8 0
BBX 8 8 0 -1
BITMAP
00
10
3C
24
3E
FC
14
6C
ENDCHAR
STARTCHAR u8F66-ZH_CN
ENCODING 36710
SWIDTH 1000 0
DWIDTH 8 0
BBX 8 8 0 -1
BITMAP
00
10
FE
20
7C
10
FE
10
ENDCHAR
STARTCHAR u8F6C-ZH_CN
ENCODING 36716
SWIDTH 1000 0
DWIDTH 8 0
BBX 8 8 0 -1
BITMAP
00
48
DC
88
FE
50
DE
42
ENDCHAR
STARTCHAR u8F6E-ZH_CN
ENCODING 36718
SWIDTH 1000 0
DWIDTH 8 0
BBX 8 8 0 -1
BITMAP
00
48
D4
A2
D4
58
D2
5E
ENDCHAR
STARTCHAR u8F74-ZH_CN
ENCODING 36724
SWIDTH 1000 0
DWIDTH 8 0
BBX 8 8 0 -1
BITMAP
00
44
FE
96
FE
56
F6
5E
ENDCHAR
STARTCHAR u8F7D-ZH_CN
ENCODING 36733
SWIDTH 1000 0
DWIDTH 8 0
BBX 8 8 0 -1
BITMAP
00
28
7A
28
FE
A6
F4
2A
ENDCHAR
STARTCHAR u8F83-ZH_CN
ENCODING 36739
SWIDTH 1000 0
DWIDTH 8 0
BBX 8 8 0 -1
BITMAP
00
48
FE
94
E2
54
C8
76
ENDCHAR
STARTCHAR u8F91-ZH_CN
ENCODING 36753
SWIDTH 1000 0
DWIDTH 8 0
BBX 8 8 0 -1
BITMAP
00
5C
D4
BE
DC
54
FE
44
ENDCHAR
STARTCHAR u8F93-ZH_CN
ENCODING 36755
SWIDTH 1000 0
DWIDTH 8 0
BBX 8 8 0 -1
BITMAP
00
48
F4
8E
E0
5A
FA
5A
ENDCHAR
STARTCHAR u8FB9-ZH_CN
ENCODING 36793
SWIDTH 1000 0
DWIDTH 8 0
BBX 8 8 0 -1
BITMAP
00
88
5E
0A
D2
66
40
BE
ENDCHAR
STARTCHAR u8FC7-ZH_CN
ENCODING 36807
SWIDTH 1000 0
DWIDTH 8 0
BBX 8 8 0 -1
BITMAP
00
84
5E
04
D4
44
4C
BE
ENDCHAR
STARTCHAR u8FD0-ZH_CN
ENCODING 36816
SWIDTH 1000 0
DWIDTH 8 0
BBX 8 8 0 -1
BITMAP
00
9C
00
3E
D4
7A
40
BE
ENDCHAR
STARTCHAR u8FDB-ZH_CN
ENCODING 36827
SWIDTH 1000 0
DWIDTH 8 0
BBX 8 8 0 -1
BITMAP
00
94
3E
14
FE
54
64
BE
ENDCHAR
STARTCHAR u8FDE-ZH_CN
ENCODING 36830
SWIDTH 1000 0
DWIDTH 8 0
BBX 8 8 0 -1
BITMAP
00
88
3E
10
DC
7E
48
BE
ENDCHAR
STARTCHAR u8FDF-ZH_CN
ENCODING 36831
SWIDTH 1000 0
DWIDTH 8 0
BBX 8 8 0 -1
BITMAP
00
9E
52
1E
D4
62
40
BE
ENDCHAR
STARTCHAR u8FF0-ZH_CN
ENCODING 36848
SWIDTH 1000 0
DWIDTH 8 0
BBX 8 8 0 -1
BITMAP
00
8A
3E
08
DC
6A
48
BE
ENDCHAR
STARTCHAR u9000-ZH_CN
ENCODING 36864
SWIDTH 1000 0
DWIDTH 8 0
BBX 8 8 0 -1
BITMAP
00
9E
52
1E
D2
5C
56
BE
ENDCHAR
STARTCHAR u9006-ZH_CN
ENCODING 36870
SWIDTH 1000 0
DWIDTH 8 0
BBX 8 8 0 -1
BITMAP
00
94
3E
08
EA
7E
50
BE
ENDCHAR
STARTCHAR u9009-ZH_CN
ENCODING 36873
SWIDTH 1000 0
DWIDTH 8 0
BBX 8 8 0 -1
BITMAP
00
98
1C
28
FE
54
66
BE
ENDCHAR
STARTCHAR u901A-ZH_CN
ENCODING 36890
SWIDTH 1000 0
DWIDTH 8 0
BBX 8 8 0 -1
BITMAP
00
BE
04
3E
EA
7E
6A
BE
ENDCHAR
STARTCHAR u901F-ZH_CN
ENCODING 36895
SWIDTH 1000 0
DWIDTH 8 0
BBX 8 8 0 -1
BITMAP
00
88
7E
2A
FE
5C
6A
BE
ENDCHAR
STARTCHAR u903B-ZH_CN
ENCODING 36923
SWIDTH 1000 0
DWIDTH 8 0
BBX 8 8 0 -1
BITMAP
00
BE
2A
3E
D4
48
70
BE
ENDCHAR
STARTCHAR u9053-ZH_CN
ENCODING 36947
SWIDTH 1000 0
DWIDTH 8 0
BBX 8 8 0 -1
BITMAP
00
94
3E
08
D4
5C
54
BE
ENDCHAR
STARTCHAR u9065-ZH_CN
ENCODING 36965
SWIDTH 1000 0
DWIDTH 8 0
BBX 8 8 0 -1
BITMAP
00
86
3A
08
FE
48
6A
BE
ENDCHAR
STARTCHAR u90E8-ZH_CN
ENCODING 37096
SWIDTH 1000 0
DWIDTH 8 0
BBX 8 8 0 -1
BITMAP
00
2E
FA
5C
FA
7A
5C
78
ENDCHAR
STARTCHAR u914D-ZH_CN
ENCODING 37197
SWIDTH 1000 0
DWIDTH 8 0
BBX 8 8 0 -1
BITMAP
00
EE
42
E2
EE
A8
EA
EE
ENDCHAR
STARTCHAR u91C7-ZH_CN
ENCODING 37319
SWIDTH 1000 0
DWIDTH 8 0
BBX 8 8 0 -1
BITMAP
00
0E
F0
54
08
FE
38
D6
ENDCHAR
STARTCHAR u91CA-ZH_CN
ENCODING 37322
SWIDTH 1000 0
DWIDTH 8 0
BBX 8 8 0 -1
BITMAP
00
FE
2A
A4
3A
E4
7E
A4
ENDCHAR
STARTCHAR u91CD-ZH_CN
ENCODING 37325
SWIDTH 1000 0
DWIDTH 8 0
BBX 8 8 0 -1
BITMAP
00
38
FE
54
7C
54
38
FE
ENDCHAR
STARTCHAR u91CF-ZH_CN
ENCODING 37327
SWIDTH 1000 0
DWIDTH 8 0
BBX 8 8 0 -1
BITMAP
00
7C
44
FE
54
7C
10
FE
ENDCHAR
STARTCHAR u9274-ZH_CN
ENCODING 37492
SWIDTH 1000 0
DWIDTH 8 0
BBX 8 8 0 -1
BITMAP
00
28
AE
B4
28
FE
54
FE
ENDCHAR
STARTCHAR u9488-ZH_CN
ENCODING 38024
SWIDTH 1000 0
DWIDTH 8 0
BBX 8 8 0 -1
BITMAP
00
64
84
EE
44
E4
44
64
ENDCHAR
STARTCHAR u949F-ZH_CN
ENCODING 38047
SWIDTH 1000 0
DWIDTH 8 0
BBX 8 8 0 -1
BITMAP
00
64
9E
F6
56
FE
44
64
ENDCHAR
STARTCHAR u94AE-ZH_CN
ENCODING 38062
SWIDTH 1000 0
DWIDTH 8 0
BBX 8 8 0 -1
BITMAP
00
7C
94
D4
7C
D4
54
7E
ENDCHAR
STARTCHAR u9501-ZH_CN
ENCODING 38145
SWIDTH 1000 0
DWIDTH 8 0
BBX 8 8 0 -1
BITMAP
00
56
84
FE
52
FA
48
72
ENDCHAR
STARTCHAR u9519-ZH_CN
ENCODING 38169
SWIDTH 1000 0
DWIDTH 8 0
BBX 8 8 0 -1
BITMAP
00
54
BE
D4
7E
DC
54
7C
ENDCHAR
STARTCHAR u952E-ZH_CN
ENCODING 38190
SWIDTH 1000 0
DWIDTH 8 0
BBX 8 8 0 -1
BITMAP
00
74
9E
EE
54
FE
54
6E
ENDCHAR
STARTCHAR u955C-ZH_CN
ENCODING 38236
SWIDTH 1000 0
DWIDTH 8 0
BBX 8 8 0 -1
BITMAP
00
48
BE
D4
7E
DC
5C
66
ENDCHAR
STARTCHAR u957F-ZH_CN
ENCODING 38271
SWIDTH 1000 0
DWIDTH 8 0
BBX 8 8 0 -1
BITMAP
00
44
58
40
FE
50
48
66
ENDCHAR
STARTCHAR u95E8-ZH_CN
ENCODING 38376
SWIDTH 1000 0
DWIDTH 8 0
BBX 8 8 0 -1
BITMAP
00
BE
02
82
82
82
82
86
ENDCHAR
STARTCHAR u95ED-ZH_CN
ENCODING 38381
SWIDTH 1000 0
DWIDTH 8 0
BBX 8 8 0 -1
BITMAP
00
BE
02
8A
BE
9A
AA
DA
ENDCHAR
STARTCHAR u95EE-ZH_CN
ENCODING 38382
SWIDTH 1000 0
DWIDTH 8 0
BBX 8 8 0 -1
BITMAP
00
BE
02
BA
AA
BA
82
86
ENDCHAR
STARTCHAR u95F4-ZH_CN
ENCODING 38388
SWIDTH 1000 0
DWIDTH 8 0
BBX 8 8 0 -1
BITMAP
00
BE
02
BA
AA
BA
AA
BA
ENDCHAR
STARTCHAR u9634-ZH_CN
ENCODING 38452
SWIDTH 1000 0
DWIDTH 8 0
BBX 8 8 0 -1
BITMAP
00
DE
D2
9E
D2
DE
92
A6
ENDCHAR
STARTCHAR u9636-ZH_CN
ENCODING 38454
SWIDTH 1000 0
DWIDTH 8 0
BBX 8 8 0 -1
BITMAP
00
C8
D4
A2
D4
D4
94
A4
ENDCHAR
STARTCHAR u9640-ZH_CN
ENCODING 38464
SWIDTH 1000 0
DWIDTH 8 0
BBX 8 8 0 -1
BITMAP
00
E4
BE
D2
A8
AE
C8
8E
ENDCHAR
STARTCHAR u9644-ZH_CN
ENCODING 38468
SWIDTH 1000 0
DWIDTH 8 0
BBX 8 8 0 -1
BITMAP
00
EA
B6
D2
BA
B2
D2
96
ENDCHAR
STARTCHAR u964D-ZH_CN
ENCODING 38477
SWIDTH 1000 0
DWIDTH 8 0
BBX 8 8 0 -1
BITMAP
00
CC
D4
88
F6
DC
BE
84
ENDCHAR
STARTCHAR u9650-ZH_CN
ENCODING 38480
SWIDTH 1000 0
DWIDTH 8 0
BBX 8 8 0 -1
BITMAP
00
FE
B2
DE
B2
BE
D4
9A
ENDCHAR
STARTCHAR u9664-ZH_CN
ENCODING 38500
SWIDTH 1000 0
DWIDTH 8 0
BBX 8 8 0 -1
BITMAP
00
C8
D4
BE
C8
FE
88
AA
ENDCHAR
STARTCHAR u9677-ZH_CN
ENCODING 38519
SWIDTH 1000 0
DWIDTH 8 0
BBX 8 8 0 -1
BITMAP
00
EE
B2
C4
B6
B2
D6
9E
ENDCHAR
STARTCHAR u968F-ZH_CN
ENCODING 38543
SWIDTH 1000 0
DWIDTH 8 0
BBX 8 8 0 -1
BITMAP
00
F4
AE
C4
B8
B6
D6
AE
ENDCHAR
STARTCHAR u9694-ZH_CN
ENCODING 38548
SWIDTH 1000 0
DWIDTH 8 0
BBX 8 8 0 -1
BITMAP
00
FE
AC
CC
BE
B2
DE
96
ENDCHAR
STARTCHAR u969C-ZH_CN
ENCODING 38556
SWIDTH 1000 0
DWIDTH 8 0
BBX 8 8 0 -1
BITMAP
00
C8
FE
94
FE
DC
BE
88
ENDCHAR
STARTCHAR u96C6-ZH_CN
ENCODING 38598
SWIDTH 1000 0
DWIDTH 8 0
BBX 8 8 0 -1
BITMAP
00
28
7C
A8
3C
FE
38
D6
ENDCHAR
STARTCHAR u96F6-ZH_CN
ENCODING 38646
SWIDTH 1000 0
DWIDTH 8 0
BBX 8 8 0 -1
BITMAP
00
38
FE
B6
28
FE
24
18
ENDCHAR
STARTCHAR u9700-ZH_CN
ENCODING 38656
SWIDTH 1000 0
DWIDTH 8 0
BBX 8 8 0 -1
BITMAP
00
38
FE
B6
7C
10
FE
AA
ENDCHAR
STARTCHAR u9707-ZH_CN
ENCODING 38663
SWIDTH 1000 0
DWIDTH 8 0
BBX 8 8 0 -1
BITMAP
00
38
FE
B6
7C
7E
68
B6
ENDCHAR
STARTCHAR u9759-ZH_CN
ENCODING 38745
SWIDTH 1000 0
DWIDTH 8 0
BBX 8 8 0 -1
BITMAP
00
26
7A
24
FE
56
7E
54
ENDCHAR
STARTCHAR u975E-ZH_CN
ENCODING 38750
SWIDTH 1000 0
DWIDTH 8 0
BBX 8 8 0 -1
BITMAP
00
28
EE
28
EE
28
EE
28
ENDCHAR
STARTCHAR u9762-ZH_CN
ENCODING 38754
SWIDTH 1000 0
DWIDTH 8 0
BBX 8 8 0 -1
BITMAP
00
FE
10
FE
AA
BA
AA
FE
ENDCHAR
STARTCHAR u97E9-ZH_CN
ENCODING 38889
SWIDTH 1000 0
DWIDTH 8 0
BBX 8 8 0 -1
BITMAP
00
E8
5E
E8
BC
48
FE
4A
ENDCHAR
STARTCHAR u97F3-ZH_CN
ENCODING 38899
SWIDTH 1000 0
DWIDTH 8 0
BBX 8 8 0 -1
BITMAP
00
10
7C
28
FE
7C
44
7C
ENDCHAR
STARTCHAR u9875-ZH_CN
ENCODING 39029
SWIDTH 1000 0
DWIDTH 8 0
BBX 8 8 0 -1
BITMAP
00
FE
10
7C
44
54
10
E6
ENDCHAR
STARTCHAR u9876-ZH_CN
ENCODING 39030
SWIDTH 1000 0
DWIDTH 8 0
BBX 8 8 0 -1
BITMAP
00
FE
48
5E
52
5A
C8
12
ENDCHAR
STARTCHAR u9879-ZH_CN
ENCODING 39033
SWIDTH 1000 0
DWIDTH 8 0
BBX 8 8 0 -1
BITMAP
00
1E
E8
5E
52
7A
C8
12
ENDCHAR
STARTCHAR u987A-ZH_CN
ENCODING 39034
SWIDTH 1000 0
DWIDTH 8 0
BBX 8 8 0 -1
BITMAP
00
5E
74
7E
7A
7E
54
9A
ENDCHAR
STARTCHAR u987B-ZH_CN
ENCODING 39035
SWIDTH 1000 0
DWIDTH 8 0
BBX 8 8 0 -1
BITMAP
00
5E
88
5E
92
1A
48
92
ENDCHAR
STARTCHAR u9884-ZH_CN
ENCODING 39044
SWIDTH 1000 0
DWIDTH 8 0
BBX 8 8 0 -1
BITMAP
00
EE
24
4E
EA
6E
44
DA
ENDCHAR
STARTCHAR u9891-ZH_CN
ENCODING 39057
SWIDTH 1000 0
DWIDTH 8 0
BBX 8 8 0 -1
BITMAP
00
2E
B4
AE
FA
BE
24
CA
ENDCHAR
STARTCHAR u9898-ZH_CN
ENCODING 39064
SWIDTH 1000 0
DWIDTH 8 0
BBX 8 8 0 -1
BITMAP
00
6E
64
FE
2E
74
6A
9E
ENDCHAR
STARTCHAR u989C-ZH_CN
ENCODING 39068
SWIDTH 1000 0
DWIDTH 8 0
BBX 8 8 0 -1
BITMAP
00
2E
F4
5E
FA
AE
94
AA
ENDCHAR
STARTCHAR u98CE-ZH_CN
ENCODING 39118
SWIDTH 1000 0
DWIDTH 8 0
BBX 8 8 0 -1
BITMAP
00
7C
44
6C
54
6C
44
86
ENDCHAR
STARTCHAR u98DE-ZH_CN
ENCODING 39134
SWIDTH 1000 0
DWIDTH 8 0
BBX 8 8 0 -1
BITMAP
00
F8
0A
0C
0A
08
0A
06
ENDCHAR
STARTCHAR u9988-ZH_CN
ENCODING 39304
SWIDTH 1000 0
DWIDTH 8 0
BBX 8 8 0 -1
BITMAP
00
88
FE
6A
BE
A2
C8
B2
ENDCHAR
STARTCHAR u9A76-ZH_CN
ENCODING 39542
SWIDTH 1000 0
DWIDTH 8 0
BBX 8 8 0 -1
BITMAP
00
E4
3E
96
FE
2C
A4
7A
ENDCHAR
STARTCHAR u9A7E-ZH_CN
ENCODING 39550
SWIDTH 1000 0
DWIDTH 8 0
BBX 8 8 0 -1
BITMAP
00
40
FE
5A
AE
3E
02
FA
ENDCHAR
STARTCHAR u9A8C-ZH_CN
ENCODING 39564
SWIDTH 1000 0
DWIDTH 8 0
BBX 8 8 0 -1
BITMAP
00
E8
34
8E
E0
2A
B4
7E
ENDCHAR
STARTCHAR u9AD8-ZH_CN
ENCODING 39640
SWIDTH 1000 0
DWIDTH 8 0
BBX 8 8 0 -1
BITMAP
00
10
FE
28
38
FE
AA
BA
ENDCHAR
STARTCHAR u9E23-ZH_CN
ENCODING 40483
SWIDTH 1000 0
DWIDTH 8 0
BBX 8 8 0 -1
BITMAP
00
08
DC
D4
DC
DE
02
3A
ENDCHAR
STARTCHAR u9EA6-ZH_CN
ENCODING 40614
SWIDTH 1000 0
DWIDTH 8 0
BBX 8 8 0 -1
BITMAP
00
10
7C
10
FE
28
50
AE
ENDCHAR
STARTCHAR u9EC4-ZH_CN
ENCODING 40644
SWIDTH 1000 0
DWIDTH 8 0
BBX 8 8 0 -1
BITMAP
00
28
FE
28
FE
54
7C
C6
ENDCHAR
STARTCHAR u9ED8-ZH_CN
ENCODING 40664
SWIDTH 1000 0
DWIDTH 8 0
BBX 8 8 0 -1
BITMAP
00
EA
E8
FE
48
E8
14
A2
ENDCHAR
STARTCHAR u9F50-ZH_CN
ENCODING 40784
SWIDTH 1000 0
DWIDTH 8 0
BBX 8 8 0 -1
BITMAP
00
10
FE
28
10
EE
28
48
ENDCHAR
STARTCHAR uFF0C
ENCODING 65292
SWIDTH 1000 0
DWIDTH 8 0
BBX 8 8 0 -1
BITMAP
00
00
00
00
00
60
20
40
ENDCHAR
ENDFONT
