STARTFONT 2.1
FONT -TakWolf-Fusion Pixel 12px Mono zh_hans-Regular-R-Normal-Sans Serif-12-120-75-75-M-118-ISO10646-1
SIZE 12 75 75
FONTBOUNDINGBOX 12 12 0 -2
STARTPROPERTIES 24
FOUNDRY "TakWolf"
FAMILY_NAME "Fusion Pixel 12px Mono zh_hans"
WEIGHT_NAME "Regular"
SLANT "R"
SETWIDTH_NAME "Normal"
ADD_STYLE_NAME "Sans Serif"
PIXEL_SIZE 12
POINT_SIZE 120
RESOLUTION_X 75
RESOLUTION_Y 75
SPACING "M"
AVERAGE_WIDTH 118
CHARSET_REGISTRY "ISO10646"
CHARSET_ENCODING "1"
DEFAULT_CHAR -1
FONT_ASCENT 10
FONT_DESCENT 2
X_HEIGHT 6
CAP_HEIGHT 8
UNDERLINE_POSITION -2
UNDERLINE_THICKNESS 1
FONT_VERSION "2026.07.01"
COPYRIGHT "Copyright (c) 2022, TakWolf (https://takwolf.com)"
LICENSE "This Font Software is licensed under the SIL Open Font License, Version 1.1"
ENDPROPERTIES
CHARS 34
STARTCHAR u25A1
ENCODING 9633
SWIDTH 1000 0
DWIDTH 12 0
BBX 12 12 0 -2
BITMAP
0000
FFE0
8020
8020
8020
8020
8020
8020
8020
8020
8020
FFE0
ENDCHAR
STARTCHAR u4E8E
ENCODING 20110
SWIDTH 1000 0
DWIDTH 12 0
BBX 12 12 0 -2
BITMAP
0000
7FC0
0400
0400
0400
0400
FFE0
0400
0400
0400
0400
1C00
ENDCHAR
STARTCHAR u4EF6
ENCODING 20214
SWIDTH 1000 0
DWIDTH 12 0
BBX 12 12 0 -2
BITMAP
0000
2900
2900
4FE0
5100
C100
4100
5FE0
4100
4100
4100
4100
ENDCHAR
STARTCHAR u4FDD
ENCODING 20445
SWIDTH 1000 0
DWIDTH 12 0
BBX 12 12 0 -2
BITMAP
0000
2FC0
2840
4840
4FC0
C100
4100
5FE0
4380
4540
5920
4100
ENDCHAR
STARTCHAR u50A8
ENCODING 20648
SWIDTH 1000 0
DWIDTH 12 0
BBX 12 12 0 -2
BITMAP
0000
2080
33E0
48A0
40C0
C3E0
5880
49E0
4B20
49E0
4D20
49E0
ENDCHAR
STARTCHAR u5173
ENCODING 20851
SWIDTH 1000 0
DWIDTH 12 0
BBX 12 12 0 -2
BITMAP
0000
2080
1100
7FC0
0400
0400
0400
FFE0
0A00
1100
2080
C060
ENDCHAR
STARTCHAR u5361
ENCODING 21345
SWIDTH 1000 0
DWIDTH 12 0
BBX 12 12 0 -2
BITMAP
0000
0400
0400
07C0
0400
0400
FFE0
0400
0500
0480
0440
0400
ENDCHAR
STARTCHAR u544A
ENCODING 21578
SWIDTH 1000 0
DWIDTH 12 0
BBX 12 12 0 -2
BITMAP
0000
4400
7FC0
8400
0400
FFE0
0000
7FC0
4040
4040
4040
7FC0
ENDCHAR
STARTCHAR u578B
ENCODING 22411
SWIDTH 1000 0
DWIDTH 12 0
BBX 12 12 0 -2
BITMAP
0000
FE20
24A0
24A0
FEA0
24A0
4420
8060
0400
7FC0
0400
FFE0
ENDCHAR
STARTCHAR u5931
ENCODING 22833
SWIDTH 1000 0
DWIDTH 12 0
BBX 12 12 0 -2
BITMAP
0000
2400
2400
3FC0
4400
8400
0400
FFE0
0A00
1100
2080
C060
ENDCHAR
STARTCHAR u5B58
ENCODING 23384
SWIDTH 1000 0
DWIDTH 12 0
BBX 12 12 0 -2
BITMAP
0000
0800
FFE0
1000
27C0
2080
6100
A100
2FE0
2100
2100
2300
ENDCHAR
STARTCHAR u5B89
ENCODING 23433
SWIDTH 1000 0
DWIDTH 12 0
BBX 12 12 0 -2
BITMAP
0000
0400
FFE0
8020
0800
0800
FFE0
1080
2080
1100
0E00
F1E0
ENDCHAR
STARTCHAR u5F00
ENCODING 24320
SWIDTH 1000 0
DWIDTH 12 0
BBX 12 12 0 -2
BITMAP
0000
FFE0
2080
2080
2080
2080
FFE0
2080
2080
4080
4080
8080
ENDCHAR
STARTCHAR u5F0F
ENCODING 24335
SWIDTH 1000 0
DWIDTH 12 0
BBX 12 12 0 -2
BITMAP
0000
0140
0120
FFE0
0100
0100
FD00
1100
1080
10A0
1C60
E020
ENDCHAR
STARTCHAR u6025-ZH_CN
ENCODING 24613
SWIDTH 1000 0
DWIDTH 12 0
BBX 12 12 0 -2
BITMAP
0000
1F00
2100
7FC0
0040
7FC0
0040
7FC0
0400
5240
50A0
8FA0
ENDCHAR
STARTCHAR u62A4
ENCODING 25252
SWIDTH 1000 0
DWIDTH 12 0
BBX 12 12 0 -2
BITMAP
0000
2100
2080
F7E0
2420
2420
37E0
E400
2400
2400
2400
E800
ENDCHAR
STARTCHAR u63A7-ZH_CN
ENCODING 25511
SWIDTH 1000 0
DWIDTH 12 0
BBX 12 12 0 -2
BITMAP
0000
4100
4FE0
E820
4280
4440
6820
C7C0
4100
4100
4100
CFE0
ENDCHAR
STARTCHAR u672A
ENCODING 26410
SWIDTH 1000 0
DWIDTH 12 0
BBX 12 12 0 -2
BITMAP
0000
0400
0400
7FC0
0400
0400
FFE0
1500
1500
2480
C460
0400
ENDCHAR
STARTCHAR u6A21
ENCODING 27169
SWIDTH 1000 0
DWIDTH 12 0
BBX 12 12 0 -2
BITMAP
0000
2280
2FE0
F280
27C0
2440
67C0
7440
AFE0
2100
2280
2C60
ENDCHAR
STARTCHAR u6C60
ENCODING 27744
SWIDTH 1000 0
DWIDTH 12 0
BBX 12 12 0 -2
BITMAP
0000
4100
2900
0960
8BA0
5D20
0920
0960
4900
4820
8820
87E0
ENDCHAR
STARTCHAR u6CB9
ENCODING 27833
SWIDTH 1000 0
DWIDTH 12 0
BBX 12 12 0 -2
BITMAP
0000
8100
4100
1FE0
9120
5120
1120
1FE0
5120
5120
9120
9FE0
ENDCHAR
STARTCHAR u6D4B
ENCODING 27979
SWIDTH 1000 0
DWIDTH 12 0
BBX 12 12 0 -2
BITMAP
0000
BE20
62A0
2AA0
AAA0
6AA0
2AA0
2AA0
6AA0
4820
9420
A2E0
ENDCHAR
STARTCHAR u7248-ZH_CN
ENCODING 29256
SWIDTH 1000 0
DWIDTH 12 0
BBX 12 12 0 -2
BITMAP
0000
5060
5780
5400
7C00
47E0
4420
7620
5540
5480
5540
9A20
ENDCHAR
STARTCHAR u7535
ENCODING 30005
SWIDTH 1000 0
DWIDTH 12 0
BBX 12 12 0 -2
BITMAP
0000
0800
FF80
8880
8880
FF80
8880
8880
FF80
0820
0820
07E0
ENDCHAR
STARTCHAR u7684
ENCODING 30340
SWIDTH 1000 0
DWIDTH 12 0
BBX 12 12 0 -2
BITMAP
0000
2200
4200
FBE0
8C20
8820
8920
F8A0
88A0
8820
8820
F8C0
ENDCHAR
STARTCHAR u786C
ENCODING 30828
SWIDTH 1000 0
DWIDTH 12 0
BBX 12 12 0 -2
BITMAP
0000
EFE0
4100
4FE0
8920
EFE0
A920
AFE0
A500
A200
E500
18E0
ENDCHAR
STARTCHAR u7C7B
ENCODING 31867
SWIDTH 1000 0
DWIDTH 12 0
BBX 12 12 0 -2
BITMAP
0000
4440
2480
FFE0
0E00
3580
C460
0400
FFE0
0A00
3180
C060
ENDCHAR
STARTCHAR u7D27-ZH_HK
ENCODING 32039
SWIDTH 1000 0
DWIDTH 12 0
BBX 12 14 0 -3
BITMAP
0000
0000
17E0
9020
9240
9180
9660
0900
1240
FFE0
0400
2480
C460
0000
ENDCHAR
STARTCHAR u88C5
ENCODING 35013
SWIDTH 1000 0
DWIDTH 12 0
BBX 12 12 0 -2
BITMAP
0000
9100
5FE0
1100
3100
D7C0
0400
FFE0
1200
E140
2C80
3060
ENDCHAR
STARTCHAR u8B66-ZH_HK
ENCODING 35686
SWIDTH 1000 0
DWIDTH 12 0
BBX 12 14 0 -3
BITMAP
0000
0000
5200
FFE0
5540
7580
0A40
FFE0
0000
7FC0
2080
2080
3F80
0000
ENDCHAR
STARTCHAR u8BD5
ENCODING 35797
SWIDTH 1000 0
DWIDTH 12 0
BBX 12 12 0 -2
BITMAP
0000
8140
4120
1FE0
0100
C100
5F00
4480
4480
44A0
6760
5820
ENDCHAR
STARTCHAR u8BEF
ENCODING 35823
SWIDTH 1000 0
DWIDTH 12 0
BBX 12 12 0 -2
BITMAP
0000
8FC0
4840
0840
0FC0
C000
4FC0
4100
5FE0
4100
6280
5C60
ENDCHAR
STARTCHAR u9519
ENCODING 38169
SWIDTH 1000 0
DWIDTH 12 0
BBX 12 12 0 -2
BITMAP
0000
4480
6FC0
8480
E480
5FE0
4000
EFC0
4840
4FC0
6840
4FC0
ENDCHAR
STARTCHAR u95E8
ENCODING 38376
SWIDTH 1000 0
DWIDTH 12 0
BBX 12 12 0 -2
BITMAP
0000
9FE0
4020
0020
8020
8020
8020
8020
8020
8020
8020
80E0
ENDCHAR
ENDFONT
